Caveat-Regular.ufo
<glyph name="U" format="2">
  <advance width="482"/>
  <unicode hex="0055"/>
  <anchor x="201" y="-110" name="bottom"/>
  <anchor x="241" y="40" name="ogonek"/>
  <anchor x="518" y="785" name="topUC"/>
  <outline>
    <contour>
      <point x="220" y="-52" type="curve"/>
      <point x="238" y="-56"/>
      <point x="251" y="-56"/>
      <point x="275" y="-46" type="curve"/>
      <point x="329" y="-26"/>
      <point x="394" y="41"/>
      <point x="439" y="108" type="curve"/>
      <point x="443" y="113"/>
      <point x="442" y="123"/>
      <point x="449" y="126" type="curve"/>
      <point x="457" y="131"/>
      <point x="467" y="136"/>
      <point x="468" y="143" type="curve"/>
      <point x="468" y="143"/>
      <point x="473" y="154"/>
      <point x="477" y="166" type="curve"/>
      <point x="484" y="170"/>
      <point x="487" y="179"/>
      <point x="494" y="191" type="curve"/>
      <point x="499" y="201"/>
      <point x="504" y="207"/>
      <point x="513" y="212" type="curve"/>
      <point x="513" y="218"/>
      <point x="513" y="218"/>
      <point x="513" y="218" type="curve"/>
      <point x="558" y="321"/>
      <point x="599" y="406"/>
      <point x="627" y="515" type="curve"/>
      <point x="646" y="607"/>
      <point x="656" y="626"/>
      <point x="644" y="642" type="curve"/>
      <point x="632" y="648"/>
      <point x="613" y="660"/>
      <point x="604" y="657" type="curve"/>
      <point x="602" y="651"/>
      <point x="596" y="640"/>
      <point x="593" y="623" type="curve"/>
      <point x="585" y="584"/>
      <point x="531" y="406"/>
      <point x="520" y="371" type="curve"/>
      <point x="490" y="308"/>
      <point x="442" y="216"/>
      <point x="432" y="206" type="curve"/>
      <point x="425" y="198"/>
      <point x="419" y="193"/>
      <point x="419" y="187" type="curve"/>
      <point x="419" y="175"/>
      <point x="346" y="74"/>
      <point x="324" y="65" type="curve"/>
      <point x="319" y="60"/>
      <point x="314" y="55"/>
      <point x="315" y="50" type="curve"/>
      <point x="313" y="45"/>
      <point x="310" y="39"/>
      <point x="307" y="46" type="curve"/>
      <point x="307" y="46"/>
      <point x="293" y="41"/>
      <point x="286" y="28" type="curve"/>
      <point x="258" y="12"/>
      <point x="228" y="5"/>
      <point x="205" y="16" type="curve"/>
      <point x="194" y="18"/>
      <point x="189" y="33"/>
      <point x="179" y="51" type="curve"/>
      <point x="179" y="87"/>
      <point x="176" y="111"/>
      <point x="200" y="222" type="curve"/>
      <point x="215" y="308"/>
      <point x="237" y="373"/>
      <point x="278" y="490" type="curve"/>
      <point x="302" y="533"/>
      <point x="327" y="587"/>
      <point x="342" y="604" type="curve"/>
      <point x="375" y="626"/>
      <point x="365" y="667"/>
      <point x="328" y="678" type="curve"/>
      <point x="314" y="680"/>
      <point x="301" y="672"/>
      <point x="270" y="618" type="curve"/>
      <point x="218" y="526"/>
      <point x="163" y="369"/>
      <point x="144" y="275" type="curve"/>
      <point x="101" y="66"/>
      <point x="127" y="-19"/>
    </contour>
  </outline>
</glyph>
<glyph name="q" format="2">
  <advance width="377"/>
  <unicode hex="0071"/>
  <outline>
    <contour>
      <point x="246" y="-220" type="curve"/>
      <point x="267" y="-231"/>
      <point x="283" y="-225"/>
      <point x="278" y="-209" type="curve"/>
      <point x="267" y="-193"/>
      <point x="267" y="-146"/>
      <point x="278" y="-87" type="curve"/>
      <point x="289" y="-34"/>
      <point x="310" y="41"/>
      <point x="315" y="62" type="curve"/>
      <point x="320" y="73"/>
      <point x="347" y="131"/>
      <point x="358" y="158" type="curve"/>
      <point x="358" y="163"/>
      <point x="374" y="200"/>
      <point x="395" y="232" type="curve"/>
      <point x="422" y="291"/>
      <point x="422" y="296"/>
      <point x="422" y="317" type="curve"/>
      <point x="416" y="344"/>
      <point x="400" y="370"/>
      <point x="384" y="381" type="curve"/>
      <point x="368" y="386"/>
      <point x="336" y="386"/>
      <point x="315" y="381" type="curve"/>
      <point x="310" y="381"/>
      <point x="299" y="376"/>
      <point x="289" y="370" type="curve"/>
      <point x="278" y="365"/>
      <point x="267" y="360"/>
      <point x="257" y="354" type="curve"/>
      <point x="230" y="338"/>
      <point x="172" y="291"/>
      <point x="156" y="264" type="curve"/>
      <point x="129" y="227"/>
      <point x="102" y="179"/>
      <point x="102" y="158" type="curve"/>
      <point x="102" y="126"/>
      <point x="134" y="87"/>
      <point x="161" y="87" type="curve"/>
      <point x="184" y="87"/>
      <point x="210" y="98"/>
      <point x="273" y="128" type="curve"/>
      <point x="274" y="123"/>
      <point x="273" y="110"/>
      <point x="267" y="99" type="curve"/>
      <point x="230" y="-7"/>
      <point x="209" y="-124"/>
      <point x="219" y="-177" type="curve"/>
      <point x="225" y="-204"/>
      <point x="230" y="-209"/>
    </contour>
    <contour>
      <point x="163" y="149" type="curve"/>
      <point x="174" y="178" type="line"/>
      <point x="190" y="215"/>
      <point x="222" y="252"/>
      <point x="270" y="289" type="curve"/>
      <point x="312" y="321"/>
      <point x="351" y="335"/>
      <point x="356" y="324" type="curve"/>
      <point x="362" y="308"/>
      <point x="328" y="241"/>
      <point x="294" y="209" type="curve"/>
      <point x="252" y="169"/>
      <point x="207" y="136"/>
    </contour>
  </outline>
</glyph>
<glyph name="yen" format="2">
  <advance width="450"/>
  <unicode hex="00A5"/>
  <outline>
    <contour>
      <point x="237" y="673" type="curve"/>
      <point x="232" y="662"/>
      <point x="218" y="643"/>
      <point x="217" y="593" type="curve"/>
      <point x="215" y="511"/>
      <point x="212" y="478"/>
      <point x="226" y="431" type="curve"/>
      <point x="233" y="380"/>
      <point x="248" y="351"/>
      <point x="275" y="311" type="curve"/>
      <point x="310" y="267" type="line"/>
      <point x="337" y="254" type="line"/>
      <point x="344" y="264"/>
      <point x="368" y="285"/>
      <point x="369" y="288" type="curve"/>
      <point x="379" y="297"/>
      <point x="431" y="352"/>
      <point x="490" y="420" type="curve"/>
      <point x="530" y="470"/>
      <point x="609" y="551"/>
      <point x="636" y="574" type="curve"/>
      <point x="645" y="583"/>
      <point x="657" y="593"/>
      <point x="658" y="600" type="curve"/>
      <point x="659" y="607"/>
      <point x="658" y="612"/>
      <point x="655" y="618" type="curve"/>
      <point x="645" y="631"/>
      <point x="649" y="648"/>
      <point x="638" y="651" type="curve"/>
      <point x="638" y="651"/>
      <point x="624" y="650"/>
      <point x="617" y="638" type="curve"/>
      <point x="585" y="619"/>
      <point x="502" y="511"/>
      <point x="429" y="433" type="curve"/>
      <point x="354" y="353"/>
      <point x="348" y="341"/>
      <point x="324" y="348" type="curve"/>
      <point x="294" y="367"/>
      <point x="278" y="452"/>
      <point x="274" y="595" type="curve"/>
      <point x="275" y="652"/>
      <point x="256" y="696"/>
    </contour>
    <contour>
      <point x="239" y="-68" type="curve"/>
      <point x="258" y="-74"/>
      <point x="258" y="-54"/>
      <point x="282" y="37" type="curve"/>
      <point x="294" y="71"/>
      <point x="314" y="142"/>
      <point x="331" y="197" type="curve"/>
      <point x="350" y="276"/>
      <point x="353" y="284"/>
      <point x="361" y="297" type="curve"/>
      <point x="333" y="328" type="line"/>
      <point x="293" y="294" type="line"/>
      <point x="275" y="242" type="line"/>
      <point x="262" y="211"/>
      <point x="244" y="159"/>
      <point x="244" y="137" type="curve"/>
      <point x="228" y="108"/>
      <point x="215" y="57"/>
      <point x="214" y="26" type="curve"/>
      <point x="200" y="-28"/>
      <point x="194" y="-33"/>
      <point x="209" y="-49" type="curve"/>
      <point x="222" y="-58"/>
      <point x="234" y="-67"/>
    </contour>
    <contour>
      <point x="165" y="116" type="curve"/>
      <point x="203" y="116"/>
      <point x="248" y="120"/>
      <point x="263" y="121" type="curve"/>
      <point x="287" y="123"/>
      <point x="416" y="115"/>
      <point x="426" y="116" type="curve"/>
      <point x="456" y="111"/>
      <point x="462" y="134"/>
      <point x="442" y="154" type="curve"/>
      <point x="427" y="168"/>
      <point x="421" y="169"/>
      <point x="387" y="169" type="curve"/>
      <point x="333" y="169"/>
      <point x="190" y="175"/>
      <point x="145" y="165" type="curve"/>
      <point x="96" y="160"/>
      <point x="86" y="155"/>
      <point x="101" y="135" type="curve"/>
      <point x="106" y="126"/>
      <point x="110" y="121"/>
      <point x="130" y="121" type="curve"/>
      <point x="145" y="116"/>
      <point x="157" y="116"/>
    </contour>
    <contour>
      <point x="490" y="296" type="curve"/>
      <point x="475" y="310"/>
      <point x="469" y="311"/>
      <point x="435" y="311" type="curve"/>
      <point x="381" y="311"/>
      <point x="238" y="317"/>
      <point x="193" y="307" type="curve"/>
      <point x="144" y="302"/>
      <point x="134" y="297"/>
      <point x="149" y="277" type="curve"/>
      <point x="154" y="268"/>
      <point x="158" y="263"/>
      <point x="178" y="263" type="curve"/>
      <point x="193" y="258"/>
      <point x="205" y="258"/>
      <point x="213" y="258" type="curve"/>
      <point x="251" y="258"/>
      <point x="396" y="252"/>
      <point x="411" y="253" type="curve"/>
      <point x="435" y="255"/>
      <point x="464" y="257"/>
      <point x="474" y="258" type="curve"/>
      <point x="504" y="253"/>
      <point x="510" y="276"/>
    </contour>
  </outline>
</glyph>
<glyph name="guillemotleft" format="2">
  <advance width="646"/>
  <unicode hex="00AB"/>
  <outline>
    <contour>
      <point x="406" y="2" type="curve"/>
      <point x="437" y="10"/>
      <point x="402" y="45"/>
      <point x="353" y="69" type="curve"/>
      <point x="260" y="121"/>
      <point x="214" y="178"/>
      <point x="202" y="205" type="curve"/>
      <point x="198" y="231"/>
      <point x="228" y="256"/>
      <point x="275" y="299" type="curve"/>
      <point x="352" y="368"/>
      <point x="375" y="382"/>
      <point x="402" y="405" type="curve"/>
      <point x="411" y="413"/>
      <point x="414" y="427"/>
      <point x="414" y="427" type="curve"/>
      <point x="412" y="438"/>
      <point x="395" y="434"/>
      <point x="381" y="444" type="curve"/>
      <point x="375" y="448"/>
      <point x="372" y="450"/>
      <point x="364" y="447" type="curve"/>
      <point x="358" y="447"/>
      <point x="346" y="434"/>
      <point x="338" y="425" type="curve"/>
      <point x="325" y="412"/>
      <point x="313" y="396"/>
      <point x="264" y="360" type="curve"/>
      <point x="194" y="300"/>
      <point x="172" y="280"/>
      <point x="154" y="258" type="curve"/>
      <point x="152" y="257"/>
      <point x="134" y="239"/>
      <point x="123" y="237" type="curve"/>
      <point x="130" y="207" type="line"/>
      <point x="154" y="165" type="line" smooth="yes"/>
      <point x="176" y="125"/>
      <point x="197" y="98"/>
      <point x="242" y="72" type="curve"/>
      <point x="262" y="48"/>
      <point x="280" y="41"/>
      <point x="328" y="16" type="curve"/>
      <point x="370" y="-3"/>
      <point x="395" y="1"/>
    </contour>
    <contour>
      <point x="606" y="2" type="curve"/>
      <point x="637" y="10"/>
      <point x="602" y="45"/>
      <point x="553" y="69" type="curve"/>
      <point x="460" y="121"/>
      <point x="414" y="178"/>
      <point x="402" y="205" type="curve"/>
      <point x="398" y="231"/>
      <point x="428" y="256"/>
      <point x="475" y="299" type="curve"/>
      <point x="552" y="368"/>
      <point x="575" y="382"/>
      <point x="602" y="405" type="curve"/>
      <point x="611" y="413"/>
      <point x="614" y="427"/>
      <point x="614" y="427" type="curve"/>
      <point x="612" y="438"/>
      <point x="595" y="434"/>
      <point x="581" y="444" type="curve"/>
      <point x="575" y="448"/>
      <point x="572" y="450"/>
      <point x="564" y="447" type="curve"/>
      <point x="558" y="447"/>
      <point x="546" y="434"/>
      <point x="538" y="425" type="curve"/>
      <point x="525" y="412"/>
      <point x="513" y="396"/>
      <point x="464" y="360" type="curve"/>
      <point x="394" y="300"/>
      <point x="372" y="280"/>
      <point x="354" y="258" type="curve"/>
      <point x="352" y="257"/>
      <point x="334" y="239"/>
      <point x="323" y="237" type="curve"/>
      <point x="330" y="207" type="line"/>
      <point x="354" y="165" type="line" smooth="yes"/>
      <point x="376" y="125"/>
      <point x="397" y="98"/>
      <point x="442" y="72" type="curve"/>
      <point x="462" y="48"/>
      <point x="480" y="41"/>
      <point x="528" y="16" type="curve"/>
      <point x="570" y="-3"/>
      <point x="595" y="1"/>
    </contour>
  </outline>
</glyph>
<glyph name="eth" format="2">
  <advance width="349"/>
  <unicode hex="00F0"/>
  <outline>
    <contour>
      <point x="180" y="12" type="curve"/>
      <point x="210" y="14"/>
      <point x="230" y="24"/>
      <point x="258" y="44" type="curve"/>
      <point x="294" y="70"/>
      <point x="318" y="87"/>
      <point x="348" y="138" type="curve"/>
      <point x="421" y="265"/>
      <point x="421" y="468"/>
      <point x="336" y="577" type="curve"/>
      <point x="311" y="610"/>
      <point x="299" y="628"/>
      <point x="294" y="623" type="curve"/>
      <point x="290" y="628"/>
      <point x="269" y="637"/>
      <point x="260" y="631" type="curve"/>
      <point x="248" y="630"/>
      <point x="233" y="611"/>
      <point x="234" y="606" type="curve"/>
      <point x="244" y="588"/>
      <point x="258" y="585"/>
      <point x="278" y="564" type="curve"/>
      <point x="332" y="496"/>
      <point x="346" y="428"/>
      <point x="345" y="365" type="curve"/>
      <point x="344" y="365"/>
      <point x="342" y="366"/>
      <point x="341" y="367" type="curve"/>
      <point x="321" y="385"/>
      <point x="316" y="382"/>
      <point x="287" y="375" type="curve"/>
      <point x="257" y="365"/>
      <point x="236" y="354"/>
      <point x="205" y="323" type="curve"/>
      <point x="180" y="303"/>
      <point x="149" y="254"/>
      <point x="140" y="234" type="curve"/>
      <point x="120" y="202"/>
      <point x="107" y="155"/>
      <point x="110" y="146" type="curve"/>
      <point x="111" y="140"/>
      <point x="111" y="135"/>
      <point x="106" y="134" type="curve"/>
      <point x="103" y="129"/>
      <point x="98" y="129"/>
      <point x="105" y="122" type="curve"/>
      <point x="105" y="122"/>
      <point x="110" y="111"/>
      <point x="106" y="99" type="curve"/>
      <point x="102" y="76"/>
      <point x="115" y="53"/>
      <point x="141" y="28" type="curve"/>
      <point x="155" y="16"/>
      <point x="162" y="9"/>
    </contour>
    <contour>
      <point x="273" y="121" type="curve"/>
      <point x="190" y="25"/>
      <point x="143" y="62"/>
      <point x="168" y="136" type="curve"/>
      <point x="194" y="203"/>
      <point x="220" y="255"/>
      <point x="261" y="293" type="curve"/>
      <point x="285" y="318"/>
      <point x="308" y="320"/>
      <point x="324" y="311" type="curve"/>
      <point x="335" y="306"/>
      <point x="337" y="257"/>
      <point x="333" y="236" type="curve"/>
      <point x="315" y="186"/>
      <point x="302" y="160"/>
    </contour>
    <contour>
      <point x="295" y="457" type="curve"/>
      <point x="333" y="468"/>
      <point x="365" y="472"/>
      <point x="372" y="484" type="curve"/>
      <point x="396" y="486"/>
      <point x="425" y="499"/>
      <point x="435" y="500" type="curve"/>
      <point x="465" y="495"/>
      <point x="471" y="518"/>
      <point x="447" y="538" type="curve"/>
      <point x="425" y="552"/>
      <point x="419" y="548"/>
      <point x="385" y="542" type="curve"/>
      <point x="331" y="531"/>
      <point x="309" y="516"/>
      <point x="264" y="506" type="curve"/>
      <point x="215" y="490"/>
      <point x="205" y="485"/>
      <point x="224" y="465" type="curve"/>
      <point x="233" y="456"/>
      <point x="239" y="451"/>
      <point x="259" y="458" type="curve"/>
      <point x="275" y="457"/>
      <point x="287" y="457"/>
    </contour>
  </outline>
</glyph>
<glyph name="OE" format="2">
  <advance width="784"/>
  <unicode hex="0152"/>
  <outline>
    <contour>
      <point x="551" y="-48" type="curve"/>
      <point x="596" y="-48"/>
      <point x="608" y="-42"/>
      <point x="658" y="-20" type="curve"/>
      <point x="724" y="6"/>
      <point x="752" y="16"/>
      <point x="752" y="30" type="curve"/>
      <point x="753" y="36"/>
      <point x="726" y="66"/>
      <point x="722" y="66" type="curve"/>
      <point x="712" y="66"/>
      <point x="707" y="62"/>
      <point x="702" y="55" type="curve"/>
      <point x="697" y="55"/>
      <point x="678" y="50"/>
      <point x="672" y="50" type="curve"/>
      <point x="663" y="45"/>
      <point x="641" y="36"/>
      <point x="617" y="22" type="curve"/>
      <point x="559" y="7"/>
      <point x="514" y="8"/>
      <point x="487" y="13" type="curve"/>
      <point x="444" y="33"/>
      <point x="445" y="52"/>
      <point x="455" y="88" type="curve"/>
      <point x="466" y="150"/>
      <point x="477" y="187"/>
      <point x="500" y="238" type="curve"/>
      <point x="526" y="293"/>
      <point x="525" y="301"/>
      <point x="531" y="297" type="curve"/>
      <point x="545" y="294"/>
      <point x="745" y="335"/>
      <point x="764" y="355" type="curve"/>
      <point x="777" y="361"/>
      <point x="774" y="376"/>
      <point x="750" y="381" type="curve"/>
      <point x="743" y="385"/>
      <point x="728" y="391"/>
      <point x="706" y="385" type="curve"/>
      <point x="676" y="385"/>
      <point x="597" y="376"/>
      <point x="565" y="371" type="curve"/>
      <point x="553" y="376"/>
      <point x="559" y="391"/>
      <point x="572" y="409" type="curve"/>
      <point x="587" y="430"/>
      <point x="599" y="446"/>
      <point x="599" y="459" type="curve"/>
      <point x="600" y="468"/>
      <point x="660" y="569"/>
      <point x="666" y="569" type="curve"/>
      <point x="666" y="569"/>
      <point x="682" y="569"/>
      <point x="701" y="575" type="curve"/>
      <point x="715" y="575"/>
      <point x="768" y="587"/>
      <point x="817" y="587" type="curve"/>
      <point x="861" y="587"/>
      <point x="906" y="587"/>
      <point x="906" y="594" type="curve"/>
      <point x="906" y="594"/>
      <point x="904" y="614"/>
      <point x="894" y="624" type="curve"/>
      <point x="877" y="632"/>
      <point x="862" y="642"/>
      <point x="833" y="642" type="curve"/>
      <point x="707.5161702102813" y="652.6794748757208"/>
      <point x="671.1746883755595" y="632.1919463013144"/>
      <point x="636" y="621" type="curve" smooth="yes"/>
      <point x="608" y="612"/>
      <point x="588" y="601"/>
      <point x="591" y="594" type="curve"/>
      <point x="583" y="584" type="line"/>
      <point x="580" y="590" type="line"/>
      <point x="560" y="618"/>
      <point x="527" y="662"/>
      <point x="489" y="668" type="curve"/>
      <point x="463" y="672"/>
      <point x="424" y="691"/>
      <point x="385" y="659" type="curve" smooth="yes"/>
      <point x="314" y="601"/>
      <point x="225" y="486"/>
      <point x="181" y="390" type="curve"/>
      <point x="148" y="319"/>
      <point x="123" y="254"/>
      <point x="107" y="202" type="curve" smooth="yes"/>
      <point x="86" y="135"/>
      <point x="92" y="124"/>
      <point x="91" y="95" type="curve"/>
      <point x="83" y="82"/>
      <point x="111" y="17"/>
      <point x="122" y="-1" type="curve"/>
      <point x="161" y="-35"/>
      <point x="221" y="-60"/>
      <point x="262" y="-48" type="curve"/>
      <point x="298" y="-47"/>
      <point x="340" y="-30"/>
      <point x="378" y="-7" type="curve"/>
      <point x="385" y="-2"/>
      <point x="392" y="2"/>
      <point x="399" y="5" type="curve"/>
      <point x="404" y="-4"/>
      <point x="412" y="-12"/>
      <point x="422" y="-19" type="curve"/>
      <point x="456" y="-46"/>
      <point x="498" y="-48"/>
    </contour>
    <contour>
      <point x="461" y="611" type="curve"/>
      <point x="512" y="605"/>
      <point x="537" y="539"/>
      <point x="529" y="487" type="curve"/>
      <point x="526" y="472"/>
      <point x="519" y="459"/>
      <point x="519" y="446" type="curve"/>
      <point x="498" y="409" type="line"/>
      <point x="495" y="401"/>
      <point x="491" y="394"/>
      <point x="488" y="389" type="curve"/>
      <point x="486" y="384"/>
      <point x="478" y="379"/>
      <point x="478" y="369" type="curve"/>
      <point x="458" y="336"/>
      <point x="458" y="317"/>
      <point x="458" y="317" type="curve"/>
      <point x="457" y="314"/>
      <point x="452" y="300"/>
      <point x="448" y="293" type="curve"/>
      <point x="440" y="285"/>
      <point x="436" y="277"/>
      <point x="430" y="244" type="curve"/>
      <point x="424" y="213" type="line"/>
      <point x="419" y="210"/>
      <point x="410" y="196"/>
      <point x="405" y="167" type="curve"/>
      <point x="399" y="146"/>
      <point x="393" y="124"/>
      <point x="391" y="108" type="curve"/>
      <point x="389" y="98"/>
      <point x="386" y="71"/>
      <point x="386" y="50" type="curve"/>
      <point x="375" y="47"/>
      <point x="353" y="36"/>
      <point x="353" y="36" type="curve"/>
      <point x="323" y="32"/>
      <point x="312" y="22"/>
      <point x="294" y="16" type="curve"/>
      <point x="281" y="14"/>
      <point x="237" y="1"/>
      <point x="217" y="4" type="curve"/>
      <point x="181" y="-2"/>
      <point x="166" y="27"/>
      <point x="155" y="68" type="curve"/>
      <point x="161" y="79"/>
      <point x="151" y="99"/>
      <point x="166" y="163" type="curve"/>
      <point x="184" y="234"/>
      <point x="213" y="335"/>
      <point x="277" y="429" type="curve"/>
      <point x="302" y="468"/>
      <point x="325" y="489"/>
      <point x="344" y="520" type="curve"/>
      <point x="394" y="590"/>
      <point x="427" y="619"/>
    </contour>
  </outline>
</glyph>
<glyph name="Schwa" format="2">
  <advance width="498"/>
  <unicode hex="018F"/>
  <outline>
    <contour>
      <point x="313" y="-20" type="curve"/>
      <point x="313" y="-20"/>
      <point x="315" y="-20"/>
      <point x="321" y="-15" type="curve"/>
      <point x="346" y="-15"/>
      <point x="394" y="24"/>
      <point x="443" y="65" type="curve"/>
      <point x="484" y="107"/>
      <point x="536" y="182"/>
      <point x="551" y="213" type="curve"/>
      <point x="557" y="218"/>
      <point x="558" y="226"/>
      <point x="563" y="232" type="curve"/>
      <point x="574" y="233"/>
      <point x="574" y="238"/>
      <point x="574" y="238" type="curve"/>
      <point x="574" y="244"/>
      <point x="580" y="270"/>
      <point x="594" y="300" type="curve"/>
      <point x="629" y="394"/>
      <point x="644" y="469"/>
      <point x="624" y="518" type="curve"/>
      <point x="611" y="566"/>
      <point x="562" y="617"/>
      <point x="520" y="629" type="curve"/>
      <point x="500" y="637"/>
      <point x="398" y="636"/>
      <point x="395" y="636" type="curve"/>
      <point x="395" y="634"/>
      <point x="384" y="633"/>
      <point x="367" y="633" type="curve"/>
      <point x="357" y="623"/>
      <point x="337" y="622"/>
      <point x="331" y="616" type="curve"/>
      <point x="319" y="609"/>
      <point x="304" y="609"/>
      <point x="299" y="609" type="curve"/>
      <point x="291" y="609"/>
      <point x="282" y="602"/>
      <point x="282" y="602" type="curve"/>
      <point x="282" y="595"/>
      <point x="282" y="595"/>
      <point x="279" y="594" type="curve"/>
      <point x="276" y="594"/>
      <point x="268" y="589"/>
      <point x="264" y="579" type="curve"/>
      <point x="258" y="570"/>
      <point x="258" y="570"/>
      <point x="270" y="554" type="curve"/>
      <point x="284" y="527"/>
      <point x="295" y="528"/>
      <point x="321" y="542" type="curve"/>
      <point x="374" y="569"/>
      <point x="476" y="578"/>
      <point x="523" y="564" type="curve"/>
      <point x="553" y="558"/>
      <point x="575" y="538"/>
      <point x="575" y="514" type="curve"/>
      <point x="581" y="464"/>
      <point x="579" y="432"/>
      <point x="568" y="404" type="curve"/>
      <point x="567" y="386"/>
      <point x="559" y="374"/>
      <point x="559" y="374" type="curve"/>
      <point x="559" y="374"/>
      <point x="552" y="342"/>
      <point x="532" y="304" type="curve"/>
      <point x="521" y="284" type="line"/>
      <point x="446" y="280" type="line" smooth="yes"/>
      <point x="407" y="280"/>
      <point x="353" y="278"/>
      <point x="334" y="276" type="curve"/>
      <point x="316" y="269"/>
      <point x="270" y="267"/>
      <point x="231" y="266" type="curve"/>
      <point x="190" y="265"/>
      <point x="155" y="263"/>
      <point x="149" y="263" type="curve"/>
      <point x="138" y="263"/>
      <point x="134" y="263"/>
      <point x="129" y="260" type="curve"/>
      <point x="118" y="254"/>
      <point x="104" y="202"/>
      <point x="112" y="170" type="curve"/>
      <point x="112" y="157"/>
      <point x="113" y="153"/>
      <point x="105" y="153" type="curve"/>
      <point x="101" y="153"/>
      <point x="120" y="94"/>
      <point x="135" y="81" type="curve"/>
      <point x="144" y="55"/>
      <point x="178" y="17"/>
      <point x="198" y="6" type="curve"/>
      <point x="229" y="-19"/>
      <point x="298" y="-32"/>
    </contour>
    <contour>
      <point x="260" y="49" type="curve"/>
      <point x="230" y="47"/>
      <point x="225" y="47"/>
      <point x="206" y="64" type="curve"/>
      <point x="176" y="87"/>
      <point x="159" y="124"/>
      <point x="162" y="155" type="curve"/>
      <point x="168" y="199"/>
      <point x="151" y="199"/>
      <point x="378" y="220" type="curve"/>
      <point x="412" y="222"/>
      <point x="444" y="222"/>
      <point x="444" y="222" type="curve"/>
      <point x="444" y="228"/>
      <point x="452" y="222"/>
      <point x="464" y="224" type="curve"/>
      <point x="483" y="224"/>
      <point x="483" y="224"/>
      <point x="482" y="211" type="curve"/>
      <point x="466" y="184"/>
      <point x="384" y="94"/>
      <point x="342" y="68" type="curve"/>
      <point x="311" y="51"/>
      <point x="297" y="51"/>
    </contour>
  </outline>
</glyph>
<glyph name="breve" format="2">
  <advance width="353"/>
  <unicode hex="02D8"/>
  <outline>
    <contour>
      <point x="334" y="437" type="curve"/>
      <point x="407" y="431"/>
      <point x="460" y="513"/>
      <point x="467" y="538" type="curve"/>
      <point x="472" y="557"/>
      <point x="451" y="599"/>
      <point x="422" y="548" type="curve"/>
      <point x="410" y="527"/>
      <point x="375" y="482"/>
      <point x="349" y="481" type="curve"/>
      <point x="289" y="479"/>
      <point x="286" y="527"/>
      <point x="292" y="550" type="curve"/>
      <point x="304" y="595"/>
      <point x="255" y="593"/>
      <point x="246" y="544" type="curve"/>
      <point x="235" y="484"/>
      <point x="269" y="442"/>
    </contour>
  </outline>
</glyph>
<glyph name="dotaccent" format="2">
  <advance width="353"/>
  <unicode hex="02D9"/>
  <outline>
    <contour>
      <point x="338" y="438" type="curve"/>
      <point x="356" y="423"/>
      <point x="372" y="424"/>
      <point x="392" y="451" type="curve"/>
      <point x="416" y="480"/>
      <point x="421" y="491"/>
      <point x="409" y="517" type="curve"/>
      <point x="396" y="538"/>
      <point x="380" y="547"/>
      <point x="364" y="536" type="curve"/>
      <point x="359" y="535"/>
      <point x="354" y="527"/>
      <point x="350" y="524" type="curve"/>
      <point x="333" y="509"/>
      <point x="325" y="484"/>
      <point x="323" y="477" type="curve"/>
      <point x="321" y="471"/>
      <point x="328" y="447"/>
    </contour>
  </outline>
</glyph>
<glyph name="tilde" format="2">
  <advance width="353"/>
  <unicode hex="02DC"/>
  <outline>
    <contour>
      <point x="387" y="429" type="curve"/>
      <point x="395" y="429"/>
      <point x="405" y="432"/>
      <point x="466" y="466" type="curve"/>
      <point x="478" y="472"/>
      <point x="488" y="489"/>
      <point x="488" y="495" type="curve"/>
      <point x="490" y="507"/>
      <point x="478" y="525"/>
      <point x="464" y="519" type="curve"/>
      <point x="436" y="508"/>
      <point x="413" y="489"/>
      <point x="393" y="484" type="curve"/>
      <point x="367" y="473"/>
      <point x="358" y="488"/>
      <point x="327" y="516" type="curve"/>
      <point x="305" y="536"/>
      <point x="272" y="542"/>
      <point x="256" y="536" type="curve"/>
      <point x="211" y="513"/>
      <point x="194" y="476"/>
      <point x="193" y="464" type="curve"/>
      <point x="192" y="457"/>
      <point x="200" y="446"/>
      <point x="213" y="442" type="curve"/>
      <point x="216" y="435"/>
      <point x="225" y="450"/>
      <point x="226" y="457" type="curve"/>
      <point x="247" y="460"/>
      <point x="251" y="492"/>
      <point x="272" y="492" type="curve"/>
      <point x="288" y="492"/>
      <point x="311" y="464"/>
      <point x="323" y="457" type="curve"/>
      <point x="348" y="440"/>
      <point x="360" y="429"/>
    </contour>
  </outline>
</glyph>
<glyph name="hungarumlaut" format="2">
  <advance width="353"/>
  <unicode hex="02DD"/>
  <outline>
    <contour>
      <point x="249" y="442" type="curve"/>
      <point x="262" y="433"/>
      <point x="266" y="435"/>
      <point x="279" y="455" type="curve"/>
      <point x="297" y="479"/>
      <point x="367" y="525"/>
      <point x="358" y="541" type="curve"/>
      <point x="346" y="562"/>
      <point x="336" y="574"/>
      <point x="324" y="569" type="curve"/>
      <point x="305" y="562"/>
      <point x="239" y="486"/>
      <point x="237" y="479" type="curve"/>
      <point x="236" y="475"/>
      <point x="240" y="451"/>
    </contour>
    <contour>
      <point x="388" y="442" type="curve"/>
      <point x="400" y="433"/>
      <point x="404" y="435"/>
      <point x="417" y="455" type="curve"/>
      <point x="435" y="479"/>
      <point x="505" y="525"/>
      <point x="496" y="541" type="curve"/>
      <point x="487" y="562"/>
      <point x="474" y="574"/>
      <point x="462" y="569" type="curve"/>
      <point x="444" y="562"/>
      <point x="377" y="486"/>
      <point x="375" y="479" type="curve"/>
      <point x="374" y="475"/>
      <point x="378" y="451"/>
    </contour>
  </outline>
</glyph>
<glyph name="dblgravecomb" format="2">
  <unicode hex="030F"/>
  <anchor x="380" y="560" name="_top"/>
  <anchor x="383" y="713" name="top"/>
  <outline>
    <contour>
      <point x="268" y="433" type="curve"/>
      <point x="280" y="440"/>
      <point x="289" y="462"/>
      <point x="288" y="466" type="curve"/>
      <point x="288" y="474"/>
      <point x="238" y="562"/>
      <point x="222" y="572" type="curve"/>
      <point x="212" y="579"/>
      <point x="196" y="571"/>
      <point x="183" y="552" type="curve"/>
      <point x="171" y="538"/>
      <point x="229" y="479"/>
      <point x="243" y="451" type="curve"/>
      <point x="251" y="429"/>
      <point x="254" y="426"/>
    </contour>
    <contour>
      <point x="387" y="433" type="curve"/>
      <point x="398" y="440"/>
      <point x="407" y="462"/>
      <point x="406" y="466" type="curve"/>
      <point x="406" y="474"/>
      <point x="357" y="561"/>
      <point x="340" y="572" type="curve"/>
      <point x="330" y="579"/>
      <point x="317" y="570"/>
      <point x="301" y="552" type="curve"/>
      <point x="289" y="538"/>
      <point x="347" y="479"/>
      <point x="361" y="451" type="curve"/>
      <point x="369" y="429"/>
      <point x="372" y="426"/>
    </contour>
  </outline>
</glyph>
<glyph name="breveinvertedcomb" format="2">
  <advance width="353"/>
  <unicode hex="0311"/>
  <anchor x="381" y="560" name="_top"/>
  <anchor x="383" y="743" name="top"/>
  <outline>
    <contour>
      <point x="415" y="477" type="curve"/>
      <point x="403" y="432"/>
      <point x="452" y="434"/>
      <point x="461" y="483" type="curve"/>
      <point x="472" y="543"/>
      <point x="438" y="585"/>
      <point x="373" y="590" type="curve"/>
      <point x="300" y="596"/>
      <point x="247" y="514"/>
      <point x="240" y="489" type="curve"/>
      <point x="235" y="470"/>
      <point x="256" y="428"/>
      <point x="285" y="479" type="curve"/>
      <point x="297" y="500"/>
      <point x="332" y="545"/>
      <point x="358" y="546" type="curve"/>
      <point x="418" y="548"/>
      <point x="421" y="500"/>
    </contour>
  </outline>
</glyph>
<glyph name="dotbelowcomb" format="2">
  <advance width="353"/>
  <unicode hex="0323"/>
  <anchor x="135" y="-110" name="_bottom"/>
  <outline>
    <contour>
      <point x="109" y="-139" type="curve"/>
      <point x="119" y="-154"/>
      <point x="135" y="-153"/>
      <point x="155" y="-126" type="curve"/>
      <point x="170" y="-106"/>
      <point x="175" y="-95"/>
      <point x="163" y="-77" type="curve"/>
      <point x="158" y="-57"/>
      <point x="143" y="-48"/>
      <point x="127" y="-59" type="curve"/>
      <point x="122" y="-60"/>
      <point x="117" y="-68"/>
      <point x="113" y="-71" type="curve"/>
      <point x="105" y="-77"/>
      <point x="97" y="-102"/>
      <point x="95" y="-109" type="curve"/>
      <point x="93" y="-115"/>
      <point x="100" y="-130"/>
    </contour>
  </outline>
</glyph>
<glyph name="commaaccentcomb" format="2">
  <advance width="186"/>
  <unicode hex="0326"/>
  <anchor x="136" y="-110" name="_bottom"/>
  <outline>
    <contour>
      <point x="72" y="-183" type="curve"/>
      <point x="86" y="-183"/>
      <point x="89" y="-183"/>
      <point x="94" y="-179" type="curve"/>
      <point x="99" y="-176"/>
      <point x="103" y="-174"/>
      <point x="108" y="-174" type="curve"/>
      <point x="113" y="-174"/>
      <point x="144" y="-132"/>
      <point x="149" y="-124" type="curve"/>
      <point x="164" y="-91"/>
      <point x="169" y="-78"/>
      <point x="164" y="-50" type="curve"/>
      <point x="135" y="-27"/>
      <point x="112" y="-47"/>
      <point x="114" y="-84" type="curve"/>
      <point x="115" y="-105"/>
      <point x="86" y="-137"/>
      <point x="67" y="-157" type="curve"/>
      <point x="58" y="-165"/>
      <point x="53" y="-170"/>
      <point x="53" y="-176" type="curve"/>
      <point x="58" y="-183"/>
      <point x="58" y="-183"/>
    </contour>
  </outline>
</glyph>
<glyph name="sha-cy" format="2">
  <advance width="589"/>
  <unicode hex="0448"/>
  <outline>
    <contour>
      <point x="141" y="28" type="curve"/>
      <point x="173" y="28" type="line"/>
      <point x="205" y="55"/>
      <point x="216" y="73"/>
      <point x="249" y="99" type="curve"/>
      <point x="274" y="118"/>
      <point x="288" y="154"/>
      <point x="300" y="151" type="curve"/>
      <point x="293" y="140"/>
      <point x="296" y="127"/>
      <point x="299" y="115" type="curve"/>
      <point x="302" y="102"/>
      <point x="307" y="89"/>
      <point x="312" y="75" type="curve"/>
      <point x="328" y="64"/>
      <point x="337" y="44"/>
      <point x="353" y="35" type="curve"/>
      <point x="378" y="30"/>
      <point x="394" y="39"/>
      <point x="409" y="52" type="curve"/>
      <point x="454" y="91"/>
      <point x="489" y="149"/>
      <point x="501" y="146" type="curve"/>
      <point x="503" y="115"/>
      <point x="509" y="83"/>
      <point x="530" y="65" type="curve"/>
      <point x="550" y="48"/>
      <point x="546" y="38"/>
      <point x="576" y="33" type="curve"/>
      <point x="590" y="32"/>
      <point x="602" y="37"/>
      <point x="614" y="44" type="curve"/>
      <point x="616" y="53"/>
      <point x="620" y="77"/>
      <point x="610" y="91" type="curve"/>
      <point x="597" y="91"/>
      <point x="577" y="82"/>
      <point x="567" y="90" type="curve"/>
      <point x="560" y="114"/>
      <point x="562" y="137"/>
      <point x="566" y="160" type="curve"/>
      <point x="572" y="198"/>
      <point x="592" y="243"/>
      <point x="592" y="261" type="curve"/>
      <point x="585" y="283"/>
      <point x="571" y="296"/>
      <point x="551" y="303" type="curve"/>
      <point x="532" y="309"/>
      <point x="522" y="269"/>
      <point x="506" y="251" type="curve"/>
      <point x="467" y="205" type="line"/>
      <point x="461" y="188"/>
      <point x="444" y="181"/>
      <point x="437" y="165" type="curve"/>
      <point x="404" y="145"/>
      <point x="401" y="117"/>
      <point x="361" y="102" type="curve"/>
      <point x="355" y="114"/>
      <point x="353" y="125"/>
      <point x="355" y="134" type="curve"/>
      <point x="362" y="160"/>
      <point x="366" y="186"/>
      <point x="378" y="210" type="curve"/>
      <point x="392" y="238"/>
      <point x="407" y="269"/>
      <point x="401" y="283" type="curve"/>
      <point x="391" y="305"/>
      <point x="377" y="313"/>
      <point x="364" y="321" type="curve"/>
      <point x="351" y="323"/>
      <point x="342" y="319"/>
      <point x="339" y="306" type="curve"/>
      <point x="334" y="291"/>
      <point x="325" y="277"/>
      <point x="315" y="264" type="curve"/>
      <point x="302" y="249"/>
      <point x="264" y="194"/>
      <point x="258" y="188" type="curve"/>
      <point x="246" y="172"/>
      <point x="235" y="162"/>
      <point x="211" y="137" type="curve"/>
      <point x="168" y="91"/>
      <point x="124" y="70"/>
      <point x="161" y="137" type="curve"/>
      <point x="169" y="157"/>
      <point x="179" y="176"/>
      <point x="188" y="196" type="curve"/>
      <point x="195" y="219"/>
      <point x="206" y="241"/>
      <point x="224" y="258" type="curve"/>
      <point x="233" y="269"/>
      <point x="240" y="281"/>
      <point x="243" y="295" type="curve"/>
      <point x="226" y="317"/>
      <point x="220" y="332"/>
      <point x="198" y="334" type="curve"/>
      <point x="179" y="334"/>
      <point x="158" y="297"/>
      <point x="141" y="256" type="curve"/>
      <point x="128" y="227"/>
      <point x="114" y="199"/>
      <point x="102" y="170" type="curve"/>
      <point x="94" y="150"/>
      <point x="89" y="129"/>
      <point x="91" y="105" type="curve"/>
      <point x="96" y="58"/>
      <point x="115" y="51"/>
    </contour>
  </outline>
</glyph>
<glyph name="Ghestroke-cy" format="2">
  <advance width="501"/>
  <unicode hex="0492"/>
  <outline>
    <contour>
      <point x="186" y="259" type="curve"/>
      <point x="199" y="256"/>
      <point x="211" y="258"/>
      <point x="218" y="259" type="curve"/>
      <point x="274" y="267"/>
      <point x="364" y="283"/>
      <point x="376" y="284" type="curve"/>
      <point x="400" y="286"/>
      <point x="425" y="292"/>
      <point x="435" y="294" type="curve"/>
      <point x="464" y="295"/>
      <point x="466" y="316"/>
      <point x="446" y="334" type="curve"/>
      <point x="432" y="346"/>
      <point x="424" y="343"/>
      <point x="393" y="340" type="curve"/>
      <point x="323" y="333"/>
      <point x="255" y="317"/>
      <point x="193" y="302" type="curve"/>
      <point x="148" y="292"/>
      <point x="142" y="286"/>
      <point x="156" y="267" type="curve"/>
      <point x="162" y="259"/>
      <point x="166" y="257"/>
    </contour>
    <component base="Ge-cy" xOffset="42"/>
  </outline>
</glyph>
<glyph name="tedescender-cy" format="2">
  <advance width="550"/>
  <unicode hex="04AD"/>
  <outline>
    <contour>
      <point x="191" y="82" type="curve"/>
      <point x="236" y="143"/>
      <point x="296" y="202"/>
      <point x="315" y="224" type="curve"/>
      <point x="342" y="247"/>
      <point x="365" y="265"/>
      <point x="365" y="260" type="curve"/>
      <point x="365" y="260"/>
      <point x="352" y="216"/>
      <point x="337" y="171" type="curve"/>
      <point x="320" y="118"/>
      <point x="314" y="100"/>
      <point x="314" y="89" type="curve" smooth="yes"/>
      <point x="314" y="83"/>
      <point x="315" y="79"/>
      <point x="318" y="74" type="curve"/>
      <point x="328" y="57"/>
      <point x="342" y="46"/>
      <point x="352" y="57" type="curve"/>
      <point x="356" y="60"/>
      <point x="366" y="87"/>
      <point x="378" y="102" type="curve"/>
      <point x="411" y="152"/>
      <point x="490" y="242"/>
      <point x="500" y="242" type="curve"/>
      <point x="504" y="242"/>
      <point x="503" y="220"/>
      <point x="503" y="216" type="curve"/>
      <point x="499" y="208"/>
      <point x="499" y="186"/>
      <point x="494" y="162" type="curve"/>
      <point x="489" y="128"/>
      <point x="494" y="90"/>
      <point x="500" y="77" type="curve"/>
      <point x="507" y="61"/>
      <point x="521" y="46"/>
      <point x="551" y="65" type="curve"/>
      <point x="538" y="44"/>
      <point x="535" y="14"/>
      <point x="525" y="-11" type="curve"/>
      <point x="519" y="-26"/>
      <point x="511" y="-37"/>
      <point x="497" y="-44" type="curve"/>
      <point x="482" y="-51"/>
      <point x="478" y="-43"/>
      <point x="465" y="-38" type="curve"/>
      <point x="457" y="-35"/>
      <point x="449" y="-42"/>
      <point x="450" y="-51" type="curve"/>
      <point x="452" y="-68"/>
      <point x="454" y="-70"/>
      <point x="464" y="-79" type="curve"/>
      <point x="481" y="-85"/>
      <point x="497" y="-87"/>
      <point x="512" y="-83" type="curve"/>
      <point x="527" y="-78"/>
      <point x="537" y="-69"/>
      <point x="549" y="-59" type="curve"/>
      <point x="559" y="-51"/>
      <point x="570" y="-33"/>
      <point x="573" y="-8" type="curve"/>
      <point x="577" y="29"/>
      <point x="581" y="77"/>
      <point x="603" y="93" type="curve"/>
      <point x="609" y="97"/>
      <point x="611" y="100"/>
      <point x="611" y="102" type="curve"/>
      <point x="611" y="119"/>
      <point x="592" y="116"/>
      <point x="579" y="112" type="curve"/>
      <point x="569" y="109"/>
      <point x="558" y="105"/>
      <point x="548" y="102" type="curve"/>
      <point x="539" y="102"/>
      <point x="539" y="106"/>
      <point x="539" y="124" type="curve"/>
      <point x="539" y="134"/>
      <point x="539" y="147"/>
      <point x="544" y="158" type="curve"/>
      <point x="548" y="190"/>
      <point x="548" y="194"/>
      <point x="553" y="224" type="curve"/>
      <point x="553" y="248"/>
      <point x="553" y="256"/>
      <point x="544" y="272" type="curve"/>
      <point x="530" y="300"/>
      <point x="512" y="304"/>
      <point x="489" y="295" type="curve"/>
      <point x="486" y="290"/>
      <point x="476" y="285"/>
      <point x="470" y="280" type="curve"/>
      <point x="470" y="276"/>
      <point x="466" y="276"/>
      <point x="466" y="276" type="curve"/>
      <point x="466" y="276"/>
      <point x="459" y="276"/>
      <point x="456" y="267" type="curve"/>
      <point x="449" y="261"/>
      <point x="440" y="253"/>
      <point x="432" y="243" type="curve"/>
      <point x="420" y="228"/>
      <point x="408" y="214"/>
      <point x="396" y="199" type="curve"/>
      <point x="403" y="217"/>
      <point x="410" y="235"/>
      <point x="417" y="253" type="curve"/>
      <point x="417" y="300"/>
      <point x="395" y="334"/>
      <point x="365" y="325" type="curve"/>
      <point x="360" y="325"/>
      <point x="352" y="322"/>
      <point x="345" y="317" type="curve"/>
      <point x="323" y="300"/>
      <point x="307" y="285"/>
      <point x="302" y="285" type="curve"/>
      <point x="299" y="282"/>
      <point x="295" y="279"/>
      <point x="292" y="276" type="curve"/>
      <point x="292" y="267"/>
      <point x="287" y="267"/>
      <point x="287" y="267" type="curve"/>
      <point x="283" y="267"/>
      <point x="267" y="252"/>
      <point x="263" y="247" type="curve"/>
      <point x="256" y="238"/>
      <point x="249" y="237"/>
      <point x="256" y="250" type="curve"/>
      <point x="259" y="255"/>
      <point x="263" y="260"/>
      <point x="266" y="265" type="curve"/>
      <point x="284" y="302"/>
      <point x="284" y="330"/>
      <point x="266" y="353" type="curve"/>
      <point x="254" y="381"/>
      <point x="230" y="386"/>
      <point x="195" y="376" type="curve"/>
      <point x="189" y="375"/>
      <point x="180" y="371"/>
      <point x="165" y="362" type="curve"/>
      <point x="159" y="358"/>
      <point x="149" y="356"/>
      <point x="139" y="347" type="curve"/>
      <point x="130" y="339"/>
      <point x="128" y="335"/>
      <point x="134" y="320" type="curve"/>
      <point x="147" y="288"/>
      <point x="152" y="288"/>
      <point x="183" y="309" type="curve"/>
      <point x="191" y="314"/>
      <point x="203" y="317"/>
      <point x="208" y="319" type="curve"/>
      <point x="208" y="319"/>
      <point x="216" y="324"/>
      <point x="222" y="318" type="curve"/>
      <point x="224" y="305"/>
      <point x="218" y="284"/>
      <point x="208" y="265" type="curve"/>
      <point x="204" y="261"/>
      <point x="194" y="243"/>
      <point x="194" y="243" type="curve"/>
      <point x="197" y="243"/>
      <point x="194" y="233"/>
      <point x="188" y="229" type="curve"/>
      <point x="163" y="190"/>
      <point x="107" y="74"/>
      <point x="115" y="65" type="curve"/>
      <point x="120" y="65"/>
      <point x="120" y="60"/>
      <point x="120" y="57" type="curve"/>
      <point x="120" y="51"/>
      <point x="124" y="42"/>
      <point x="128" y="37" type="curve"/>
      <point x="143" y="18"/>
      <point x="152" y="27"/>
    </contour>
  </outline>
</glyph>
<glyph name="Obarred-cy" format="2">
  <advance width="496"/>
  <unicode hex="04E8"/>
  <outline>
    <contour>
      <point x="189" y="297" type="curve"/>
      <point x="224" y="297"/>
      <point x="426" y="299"/>
      <point x="438" y="299" type="curve"/>
      <point x="462" y="299"/>
      <point x="488" y="301"/>
      <point x="498" y="302" type="curve"/>
      <point x="527" y="299"/>
      <point x="531" y="320"/>
      <point x="514" y="340" type="curve"/>
      <point x="502" y="354"/>
      <point x="493" y="352"/>
      <point x="462" y="352" type="curve"/>
      <point x="411" y="352"/>
      <point x="214" y="367"/>
      <point x="169" y="360" type="curve"/>
      <point x="123" y="355"/>
      <point x="116" y="350"/>
      <point x="128" y="313" type="curve"/>
      <point x="133" y="304"/>
      <point x="137" y="301"/>
      <point x="157" y="301" type="curve"/>
      <point x="169" y="297"/>
      <point x="181" y="297"/>
    </contour>
    <component base="O-cy"/>
  </outline>
</glyph>
<glyph name="ellipsis" format="2">
  <advance width="594"/>
  <unicode hex="2026"/>
  <outline>
    <contour>
      <point x="153" y="52" type="curve"/>
      <point x="202" y="76"/>
      <point x="207" y="110"/>
      <point x="167" y="135" type="curve"/>
      <point x="143" y="145"/>
      <point x="138" y="145"/>
      <point x="114" y="130" type="curve"/>
      <point x="79" y="106"/>
      <point x="69" y="81"/>
      <point x="94" y="57" type="curve"/>
      <point x="114" y="42"/>
      <point x="128" y="42"/>
    </contour>
    <contour>
      <point x="351" y="52" type="curve"/>
      <point x="400" y="76"/>
      <point x="405" y="110"/>
      <point x="365" y="135" type="curve"/>
      <point x="341" y="145"/>
      <point x="336" y="145"/>
      <point x="312" y="130" type="curve"/>
      <point x="277" y="106"/>
      <point x="267" y="81"/>
      <point x="292" y="57" type="curve"/>
      <point x="312" y="42"/>
      <point x="326" y="42"/>
    </contour>
    <contour>
      <point x="549" y="52" type="curve"/>
      <point x="598" y="76"/>
      <point x="603" y="110"/>
      <point x="563" y="135" type="curve"/>
      <point x="539" y="145"/>
      <point x="534" y="145"/>
      <point x="510" y="130" type="curve"/>
      <point x="475" y="106"/>
      <point x="465" y="81"/>
      <point x="490" y="57" type="curve"/>
      <point x="510" y="42"/>
      <point x="524" y="42"/>
    </contour>
  </outline>
</glyph>
<glyph name="guilsinglright" format="2">
  <advance width="446"/>
  <unicode hex="203A"/>
  <outline>
    <contour>
      <point x="236" y="0" type="curve"/>
      <point x="242" y="0"/>
      <point x="254" y="13"/>
      <point x="262" y="22" type="curve"/>
      <point x="275" y="35"/>
      <point x="287" y="51"/>
      <point x="336" y="87" type="curve"/>
      <point x="406" y="147"/>
      <point x="428" y="167"/>
      <point x="446" y="189" type="curve"/>
      <point x="448" y="190"/>
      <point x="466" y="208"/>
      <point x="477" y="210" type="curve"/>
      <point x="470" y="240" type="line"/>
      <point x="446" y="282" type="line" smooth="yes"/>
      <point x="424" y="322"/>
      <point x="403" y="349"/>
      <point x="358" y="375" type="curve"/>
      <point x="338" y="399"/>
      <point x="320" y="406"/>
      <point x="272" y="431" type="curve"/>
      <point x="230" y="450"/>
      <point x="205" y="446"/>
      <point x="194" y="445" type="curve"/>
      <point x="163" y="437"/>
      <point x="198" y="402"/>
      <point x="247" y="378" type="curve"/>
      <point x="340" y="326"/>
      <point x="386" y="269"/>
      <point x="398" y="242" type="curve"/>
      <point x="402" y="216"/>
      <point x="372" y="191"/>
      <point x="325" y="148" type="curve"/>
      <point x="248" y="79"/>
      <point x="225" y="65"/>
      <point x="198" y="42" type="curve"/>
      <point x="189" y="34"/>
      <point x="186" y="20"/>
      <point x="186" y="20" type="curve"/>
      <point x="188" y="9"/>
      <point x="205" y="13"/>
      <point x="219" y="3" type="curve"/>
      <point x="225" y="-1"/>
      <point x="228" y="-3"/>
    </contour>
  </outline>
</glyph>
<glyph name="colonmonetary" format="2">
  <advance width="450"/>
  <unicode hex="20A1"/>
  <outline>
    <contour>
      <point x="260" y="-124" type="curve"/>
      <point x="272" y="-121"/>
      <point x="274" y="-115"/>
      <point x="276" y="-83" type="curve"/>
      <point x="281" y="-47"/>
      <point x="361" y="140"/>
      <point x="390" y="214" type="curve"/>
      <point x="405" y="236"/>
      <point x="411" y="256"/>
      <point x="411" y="261" type="curve"/>
      <point x="413" y="270"/>
      <point x="426.0" y="279"/>
      <point x="426" y="288" type="curve"/>
      <point x="427" y="293"/>
      <point x="465" y="363"/>
      <point x="477" y="384" type="curve"/>
      <point x="487" y="400"/>
      <point x="493" y="410"/>
      <point x="493" y="415" type="curve"/>
      <point x="493" y="420"/>
      <point x="573" y="561"/>
      <point x="587" y="586" type="curve"/>
      <point x="629" y="662"/>
      <point x="637" y="666"/>
      <point x="642" y="692" type="curve"/>
      <point x="643" y="707"/>
      <point x="642" y="719"/>
      <point x="635" y="731" type="curve"/>
      <point x="626" y="740"/>
      <point x="621" y="745"/>
      <point x="621" y="745" type="curve"/>
      <point x="616" y="747"/>
      <point x="609" y="747"/>
      <point x="605" y="743" type="curve"/>
      <point x="594" y="745"/>
      <point x="589" y="740"/>
      <point x="585" y="730" type="curve"/>
      <point x="584" y="714"/>
      <point x="437" y="405"/>
      <point x="410" y="363" type="curve"/>
      <point x="404.0" y="350"/>
      <point x="397.0" y="341"/>
      <point x="395" y="330" type="curve"/>
      <point x="388" y="326"/>
      <point x="383" y="310"/>
      <point x="383" y="299" type="curve"/>
      <point x="382" y="289"/>
      <point x="373" y="278"/>
      <point x="368" y="278" type="curve"/>
      <point x="361" y="267"/>
      <point x="269" y="59"/>
      <point x="260" y="33" type="curve"/>
      <point x="259" y="23"/>
      <point x="255" y="6"/>
      <point x="243" y="-11" type="curve"/>
      <point x="221" y="-84"/>
      <point x="222" y="-132"/>
    </contour>
    <contour>
      <point x="130" y="-124" type="curve"/>
      <point x="142" y="-121"/>
      <point x="144" y="-115"/>
      <point x="146" y="-83" type="curve"/>
      <point x="151" y="-47"/>
      <point x="231" y="140"/>
      <point x="260" y="214" type="curve"/>
      <point x="275" y="236"/>
      <point x="281" y="256"/>
      <point x="281" y="261" type="curve"/>
      <point x="284" y="268"/>
      <point x="296.0" y="279.46446609406723"/>
      <point x="296" y="288" type="curve"/>
      <point x="297" y="293"/>
      <point x="335" y="363"/>
      <point x="347" y="384" type="curve"/>
      <point x="357" y="400"/>
      <point x="363" y="410"/>
      <point x="363" y="415" type="curve"/>
      <point x="363" y="420"/>
      <point x="443" y="561"/>
      <point x="457" y="586" type="curve"/>
      <point x="499" y="662"/>
      <point x="507" y="666"/>
      <point x="512" y="692" type="curve"/>
      <point x="513" y="707"/>
      <point x="512" y="719"/>
      <point x="505" y="731" type="curve"/>
      <point x="496" y="740"/>
      <point x="491" y="745"/>
      <point x="491" y="745" type="curve"/>
      <point x="486" y="747"/>
      <point x="479" y="747"/>
      <point x="475" y="743" type="curve"/>
      <point x="464" y="745"/>
      <point x="459" y="740"/>
      <point x="455" y="730" type="curve"/>
      <point x="454" y="714"/>
      <point x="307" y="405"/>
      <point x="280" y="363" type="curve"/>
      <point x="276.0" y="353"/>
      <point x="269.0" y="341"/>
      <point x="265" y="330" type="curve"/>
      <point x="258" y="326"/>
      <point x="253" y="310"/>
      <point x="253" y="299" type="curve"/>
      <point x="252" y="289"/>
      <point x="243" y="278"/>
      <point x="238" y="278" type="curve"/>
      <point x="231" y="267"/>
      <point x="139" y="59"/>
      <point x="130" y="33" type="curve"/>
      <point x="129" y="23"/>
      <point x="125" y="6"/>
      <point x="113" y="-11" type="curve"/>
      <point x="91" y="-84"/>
      <point x="92" y="-132"/>
    </contour>
    <contour>
      <point x="251" y="-19" type="curve"/>
      <point x="286" y="-18"/>
      <point x="327" y="-3"/>
      <point x="365" y="18" type="curve"/>
      <point x="381" y="28"/>
      <point x="398" y="35"/>
      <point x="405" y="36" type="curve"/>
      <point x="410" y="36"/>
      <point x="455" y="72"/>
      <point x="465" y="85" type="curve"/>
      <point x="470" y="98"/>
      <point x="474" y="103"/>
      <point x="474" y="103" type="curve"/>
      <point x="464" y="106"/>
      <point x="429" y="97"/>
      <point x="393" y="83" type="curve"/>
      <point x="377" y="72"/>
      <point x="351" y="63"/>
      <point x="339" y="56" type="curve"/>
      <point x="327" y="56"/>
      <point x="310" y="50"/>
      <point x="310" y="50" type="curve"/>
      <point x="297" y="41"/>
      <point x="228" y="25"/>
      <point x="205" y="28" type="curve"/>
      <point x="192" y="26"/>
      <point x="180" y="29"/>
      <point x="175" y="34" type="curve"/>
      <point x="161" y="46"/>
      <point x="147" y="72"/>
      <point x="145" y="86" type="curve"/>
      <point x="150" y="86"/>
      <point x="149" y="98"/>
      <point x="146" y="114" type="curve"/>
      <point x="150" y="147"/>
      <point x="166" y="216"/>
      <point x="197" y="295" type="curve"/>
      <point x="229" y="370"/>
      <point x="279" y="439"/>
      <point x="338" y="506" type="curve"/>
      <point x="384" y="560"/>
      <point x="437" y="592"/>
      <point x="467" y="591" type="curve"/>
      <point x="497" y="583"/>
      <point x="509" y="534"/>
      <point x="490" y="486" type="curve"/>
      <point x="485" y="471"/>
      <point x="484" y="455"/>
      <point x="484" y="455" type="curve"/>
      <point x="484" y="455"/>
      <point x="494" y="449"/>
      <point x="500" y="443" type="curve"/>
      <point x="515" y="434"/>
      <point x="527" y="431"/>
      <point x="532" y="433" type="curve"/>
      <point x="550" y="435"/>
      <point x="549" y="439"/>
      <point x="559" y="460" type="curve"/>
      <point x="572" y="492"/>
      <point x="561" y="556"/>
      <point x="544" y="589" type="curve"/>
      <point x="524" y="614"/>
      <point x="491" y="636"/>
      <point x="454" y="641" type="curve"/>
      <point x="434" y="644"/>
      <point x="429" y="646"/>
      <point x="406" y="638" type="curve"/>
      <point x="349" y="615"/>
      <point x="220" y="480"/>
      <point x="171" y="379" type="curve"/>
      <point x="111" y="258"/>
      <point x="74" y="154"/>
      <point x="84" y="127" type="curve"/>
      <point x="85" y="123"/>
      <point x="85" y="113"/>
      <point x="80" y="106" type="curve"/>
      <point x="76" y="100"/>
      <point x="102" y="40"/>
      <point x="113" y="24" type="curve"/>
      <point x="152" y="-7"/>
      <point x="211" y="-30"/>
    </contour>
  </outline>
</glyph>
<glyph name="servicemark" format="2">
  <advance width="661"/>
  <unicode hex="2120"/>
  <outline>
    <contour>
      <point x="376" y="273" type="curve"/>
      <point x="384" y="281"/>
      <point x="385" y="283"/>
      <point x="391" y="295" type="curve"/>
      <point x="395" y="303"/>
      <point x="400" y="315"/>
      <point x="411" y="335" type="curve"/>
      <point x="463" y="435" type="line"/>
      <point x="474" y="458"/>
      <point x="488" y="482"/>
      <point x="498" y="501" type="curve"/>
      <point x="501" y="507"/>
      <point x="507" y="517"/>
      <point x="510" y="524" type="curve"/>
      <point x="502" y="470" type="line"/>
      <point x="502" y="468"/>
      <point x="501" y="465"/>
      <point x="501" y="463" type="curve"/>
      <point x="498" y="447"/>
      <point x="496" y="430"/>
      <point x="492" y="413" type="curve"/>
      <point x="489" y="392"/>
      <point x="488" y="376"/>
      <point x="488" y="363" type="curve"/>
      <point x="488" y="342"/>
      <point x="492" y="329"/>
      <point x="505" y="315" type="curve"/>
      <point x="528" y="292"/>
      <point x="542" y="297"/>
      <point x="573" y="330" type="curve"/>
      <point x="587" y="346"/>
      <point x="609" y="378"/>
      <point x="609" y="383" type="curve"/>
      <point x="622" y="401" type="line"/>
      <point x="630" y="412"/>
      <point x="639" y="427"/>
      <point x="644" y="436" type="curve"/>
      <point x="650" y="448" type="line"/>
      <point x="651" y="451"/>
      <point x="657" y="459"/>
      <point x="660" y="465" type="curve"/>
      <point x="667" y="479" type="line"/>
      <point x="676" y="495"/>
      <point x="688" y="520"/>
      <point x="697" y="536" type="curve"/>
      <point x="715" y="569" type="line"/>
      <point x="715" y="568" type="line"/>
      <point x="719" y="576" type="line"/>
      <point x="723" y="584"/>
      <point x="726" y="591"/>
      <point x="728" y="593" type="curve"/>
      <point x="731" y="599"/>
      <point x="732" y="602"/>
      <point x="735" y="605" type="curve"/>
      <point x="732" y="589"/>
      <point x="727" y="569"/>
      <point x="720" y="542" type="curve"/>
      <point x="700" y="453"/>
      <point x="685" y="371"/>
      <point x="678" y="330" type="curve"/>
      <point x="678" y="324" type="line"/>
      <point x="677" y="309"/>
      <point x="678" y="294"/>
      <point x="681" y="284" type="curve"/>
      <point x="691" y="267"/>
      <point x="713" y="265"/>
      <point x="715" y="274" type="curve"/>
      <point x="726" y="275"/>
      <point x="726" y="280"/>
      <point x="727" y="292" type="curve"/>
      <point x="727" y="295"/>
      <point x="728" y="298"/>
      <point x="728" y="302" type="curve"/>
      <point x="728" y="307"/>
      <point x="729" y="313"/>
      <point x="730" y="319" type="curve"/>
      <point x="730" y="345"/>
      <point x="732" y="371"/>
      <point x="737" y="382" type="curve"/>
      <point x="737" y="387"/>
      <point x="739" y="401"/>
      <point x="742" y="415" type="curve"/>
      <point x="742" y="417"/>
      <point x="743" y="419"/>
      <point x="743" y="421" type="curve"/>
      <point x="745" y="429"/>
      <point x="746" y="437"/>
      <point x="747" y="445" type="curve"/>
      <point x="755" y="468"/>
      <point x="765" y="508"/>
      <point x="770" y="529" type="curve"/>
      <point x="784" y="575"/>
      <point x="794" y="630"/>
      <point x="793" y="647" type="curve"/>
      <point x="791" y="685"/>
      <point x="763" y="707"/>
      <point x="742" y="689" type="curve"/>
      <point x="744" y="691" type="line"/>
      <point x="735" y="684"/>
      <point x="722" y="669"/>
      <point x="713" y="653" type="curve"/>
      <point x="695" y="623" type="line"/>
      <point x="647" y="536"/>
      <point x="610" y="472"/>
      <point x="589" y="438" type="curve"/>
      <point x="583" y="429" type="line"/>
      <point x="574" y="413" type="line"/>
      <point x="571" y="407" type="line"/>
      <point x="571" y="408" type="line"/>
      <point x="561" y="396"/>
      <point x="551" y="381"/>
      <point x="545" y="372" type="curve"/>
      <point x="544" y="371"/>
      <point x="542" y="369"/>
      <point x="542" y="367" type="curve"/>
      <point x="542" y="399"/>
      <point x="560" y="509"/>
      <point x="581" y="574" type="curve"/>
      <point x="581" y="579"/>
      <point x="581" y="582"/>
      <point x="582" y="585" type="curve"/>
      <point x="582" y="586"/>
      <point x="583" y="587"/>
      <point x="583" y="588" type="curve"/>
      <point x="585" y="597"/>
      <point x="587" y="617"/>
      <point x="588" y="627" type="curve"/>
      <point x="591" y="649"/>
      <point x="587" y="660"/>
      <point x="581" y="669" type="curve"/>
      <point x="572" y="682"/>
      <point x="563" y="682"/>
      <point x="552" y="682" type="curve"/>
      <point x="542" y="682"/>
      <point x="530" y="664"/>
      <point x="530" y="647" type="curve"/>
      <point x="530" y="640"/>
      <point x="526" y="633"/>
      <point x="524" y="631" type="curve"/>
      <point x="510" y="618"/>
      <point x="495" y="590"/>
      <point x="473" y="550" type="curve"/>
      <point x="466" y="538" type="line"/>
      <point x="466" y="539" type="line"/>
      <point x="459" y="528" type="line"/>
      <point x="450" y="511" type="line"/>
      <point x="437" y="485"/>
      <point x="421" y="454"/>
      <point x="411" y="439" type="curve"/>
      <point x="402" y="420"/>
      <point x="393" y="401"/>
      <point x="387" y="398" type="curve"/>
      <point x="386" y="391"/>
      <point x="384" y="384"/>
      <point x="383" y="380" type="curve"/>
      <point x="374" y="372"/>
      <point x="362" y="352"/>
      <point x="355" y="336" type="curve"/>
      <point x="342" y="304"/>
      <point x="340" y="300"/>
      <point x="344" y="291" type="curve"/>
      <point x="352" y="281"/>
      <point x="361" y="273"/>
    </contour>
    <contour>
      <point x="291" y="288" type="curve"/>
      <point x="299" y="296" type="line"/>
      <point x="310" y="307"/>
      <point x="327" y="324"/>
      <point x="327" y="330" type="curve"/>
      <point x="327" y="335" type="line"/>
      <point x="326" y="335"/>
      <point x="326" y="334"/>
      <point x="325" y="334" type="curve"/>
      <point x="331" y="347"/>
      <point x="325" y="393"/>
      <point x="306" y="433" type="curve"/>
      <point x="306" y="433"/>
      <point x="303" y="446"/>
      <point x="302" y="451" type="curve"/>
      <point x="299" y="471" type="line"/>
      <point x="284" y="485"/>
      <point x="278" y="493"/>
      <point x="277" y="499" type="curve"/>
      <point x="274" y="515" type="line"/>
      <point x="273" y="517"/>
      <point x="273" y="520"/>
      <point x="273" y="522" type="curve"/>
      <point x="273" y="522"/>
      <point x="271" y="533"/>
      <point x="270" y="554" type="curve"/>
      <point x="265" y="573"/>
      <point x="265" y="578"/>
      <point x="269" y="589" type="curve"/>
      <point x="274" y="616"/>
      <point x="305" y="639"/>
      <point x="340" y="651" type="curve"/>
      <point x="339" y="651" type="line"/>
      <point x="353" y="653"/>
      <point x="380" y="652"/>
      <point x="388" y="648" type="curve"/>
      <point x="388" y="646"/>
      <point x="385" y="643"/>
      <point x="380" y="638" type="curve"/>
      <point x="374" y="632" type="line"/>
      <point x="368" y="622" type="line"/>
      <point x="357" y="610"/>
      <point x="352" y="600"/>
      <point x="362" y="598" type="curve"/>
      <point x="362" y="598"/>
      <point x="361" y="596"/>
      <point x="359" y="593" type="curve"/>
      <point x="359" y="585"/>
      <point x="368" y="587"/>
      <point x="377" y="590" type="curve"/>
      <point x="400" y="594"/>
      <point x="431" y="612"/>
      <point x="438" y="622" type="curve"/>
      <point x="445" y="638"/>
      <point x="445" y="638"/>
      <point x="440" y="650" type="curve"/>
      <point x="432" y="665"/>
      <point x="420" y="675"/>
      <point x="402" y="686" type="curve"/>
      <point x="389" y="693"/>
      <point x="348" y="696"/>
      <point x="330" y="692" type="curve"/>
      <point x="279" y="683"/>
      <point x="244" y="659"/>
      <point x="222" y="627" type="curve"/>
      <point x="214" y="616"/>
      <point x="212" y="606"/>
      <point x="211" y="591" type="curve"/>
      <point x="212" y="585"/>
      <point x="212" y="580"/>
      <point x="212" y="575" type="curve"/>
      <point x="212" y="569" type="line"/>
      <point x="212" y="563"/>
      <point x="212" y="559"/>
      <point x="216" y="556" type="curve"/>
      <point x="219" y="549"/>
      <point x="219" y="542"/>
      <point x="218" y="535" type="curve"/>
      <point x="218" y="535"/>
      <point x="222" y="524"/>
      <point x="227" y="513" type="curve"/>
      <point x="253" y="449"/>
      <point x="274" y="381"/>
      <point x="275" y="354" type="curve"/>
      <point x="264" y="337"/>
      <point x="257" y="329"/>
      <point x="247" y="329" type="curve"/>
      <point x="233" y="329"/>
      <point x="230" y="332"/>
      <point x="224" y="337" type="curve"/>
      <point x="209" y="347"/>
      <point x="206" y="353"/>
      <point x="202" y="361" type="curve"/>
      <point x="200" y="364"/>
      <point x="199" y="364"/>
      <point x="197" y="366" type="curve"/>
      <point x="200" y="375"/>
      <point x="194" y="386"/>
      <point x="194" y="386" type="curve"/>
      <point x="194" y="390"/>
      <point x="180" y="401"/>
      <point x="171" y="401" type="curve"/>
      <point x="166" y="401"/>
      <point x="160" y="384"/>
      <point x="160" y="377" type="curve"/>
      <point x="160" y="376"/>
      <point x="162" y="375"/>
      <point x="162" y="374" type="curve"/>
      <point x="157" y="372"/>
      <point x="156" y="365"/>
      <point x="158" y="359" type="curve"/>
      <point x="158" y="358"/>
      <point x="159" y="357"/>
      <point x="159" y="356" type="curve"/>
      <point x="174" y="305"/>
      <point x="236" y="276"/>
    </contour>
  </outline>
</glyph>
<glyph name="uni2219" format="2">
  <advance width="187"/>
  <unicode hex="2219"/>
  <outline>
    <contour>
      <point x="158" y="248" type="curve"/>
      <point x="176" y="233"/>
      <point x="192" y="234"/>
      <point x="212" y="261" type="curve"/>
      <point x="236" y="290"/>
      <point x="241" y="301"/>
      <point x="229" y="327" type="curve"/>
      <point x="216" y="348"/>
      <point x="200" y="357"/>
      <point x="184" y="346" type="curve"/>
      <point x="179" y="345"/>
      <point x="174" y="339"/>
      <point x="174" y="334" type="curve"/>
      <point x="176" y="318"/>
      <point x="156" y="290"/>
      <point x="146" y="289" type="curve"/>
      <point x="140" y="289"/>
      <point x="148" y="257"/>
    </contour>
  </outline>
</glyph>
<glyph name="approxequal" format="2">
  <advance width="446"/>
  <unicode hex="2248"/>
  <outline>
    <contour>
      <point x="389" y="261" type="curve"/>
      <point x="404" y="261"/>
      <point x="417" y="263"/>
      <point x="429" y="267" type="curve"/>
      <point x="445" y="272"/>
      <point x="475" y="286"/>
      <point x="497" y="297" type="curve"/>
      <point x="524" y="309" type="line"/>
      <point x="537" y="323"/>
      <point x="541" y="332"/>
      <point x="541" y="338" type="curve"/>
      <point x="544" y="361"/>
      <point x="542" y="366"/>
      <point x="521" y="353" type="curve"/>
      <point x="509" y="348"/>
      <point x="504" y="347"/>
      <point x="502" y="345" type="curve"/>
      <point x="495" y="344"/>
      <point x="489" y="339"/>
      <point x="487" y="336" type="curve"/>
      <point x="457" y="329" type="line"/>
      <point x="450" y="326"/>
      <point x="414" y="315"/>
      <point x="401" y="314" type="curve"/>
      <point x="367" y="303"/>
      <point x="334" y="318"/>
      <point x="303" y="346" type="curve"/>
      <point x="270" y="379"/>
      <point x="235" y="388"/>
      <point x="200" y="384" type="curve"/>
      <point x="118" y="357"/>
      <point x="83" y="319"/>
      <point x="82" y="307" type="curve"/>
      <point x="80" y="299"/>
      <point x="92" y="278"/>
      <point x="110" y="274" type="curve"/>
      <point x="116" y="267"/>
      <point x="134" y="282"/>
      <point x="136" y="292" type="curve"/>
      <point x="168" y="303"/>
      <point x="190" y="345"/>
      <point x="227" y="335" type="curve"/>
      <point x="258" y="326"/>
      <point x="275" y="307"/>
      <point x="299" y="289" type="curve"/>
      <point x="324" y="272"/>
      <point x="357" y="261"/>
    </contour>
    <contour>
      <point x="383" y="132" type="curve"/>
      <point x="414" y="137"/>
      <point x="437" y="144"/>
      <point x="462" y="160" type="curve"/>
      <point x="481" y="173"/>
      <point x="484" y="184"/>
      <point x="472" y="193" type="curve"/>
      <point x="464" y="197"/>
      <point x="460" y="197"/>
      <point x="443" y="197" type="curve"/>
      <point x="430" y="192"/>
      <point x="417" y="188"/>
      <point x="383" y="177" type="curve"/>
      <point x="359" y="172"/>
      <point x="340" y="178"/>
      <point x="322" y="199" type="curve"/>
      <point x="279" y="232"/>
      <point x="246" y="240"/>
      <point x="203" y="237" type="curve"/>
      <point x="188" y="236"/>
      <point x="166" y="230"/>
      <point x="155" y="225" type="curve"/>
      <point x="125" y="217"/>
      <point x="121" y="215"/>
      <point x="94" y="197" type="curve"/>
      <point x="56" y="175"/>
      <point x="39" y="155"/>
      <point x="81" y="138" type="curve"/>
      <point x="99" y="131"/>
      <point x="101" y="131"/>
      <point x="125" y="142" type="curve"/>
      <point x="173" y="177"/>
      <point x="192" y="187"/>
      <point x="228" y="187" type="curve"/>
      <point x="262" y="192"/>
      <point x="269" y="188"/>
      <point x="296" y="162" type="curve"/>
      <point x="333" y="132"/>
      <point x="344" y="125"/>
    </contour>
  </outline>
</glyph>
<glyph name="rightanglebracket-math" format="2">
  <advance width="210"/>
  <unicode hex="27E9"/>
  <outline>
    <contour>
      <point x="299" y="347" type="curve"/>
      <point x="290" y="406" type="line"/>
      <point x="275" y="511"/>
      <point x="254" y="648"/>
      <point x="255" y="674" type="curve"/>
      <point x="260" y="704"/>
      <point x="259" y="711"/>
      <point x="252" y="718" type="curve"/>
      <point x="216" y="734"/>
      <point x="195" y="687"/>
      <point x="199" y="611" type="curve"/>
      <point x="201" y="595"/>
      <point x="207" y="580"/>
      <point x="205" y="569" type="curve"/>
      <point x="204" y="550"/>
      <point x="227" y="419"/>
      <point x="243" y="329" type="curve"/>
      <point x="194" y="241"/>
      <point x="106" y="80"/>
      <point x="98" y="62" type="curve"/>
      <point x="96" y="52"/>
      <point x="87" y="38"/>
      <point x="79" y="23" type="curve"/>
      <point x="47" y="-47"/>
      <point x="53" y="-96"/>
      <point x="93" y="-94" type="curve"/>
      <point x="103" y="-91"/>
      <point x="105" y="-85"/>
      <point x="111" y="-54" type="curve"/>
      <point x="117" y="-27"/>
      <point x="203" y="137"/>
      <point x="259" y="242" type="curve"/>
      <point x="286" y="304" type="line"/>
      <point x="285" y="328"/>
      <point x="300" y="340"/>
    </contour>
  </outline>
</glyph>
<glyph name="Be-cy.ss01" format="2">
  <advance width="527"/>
  <outline>
    <contour>
      <point x="402" y="639" type="curve"/>
      <point x="467" y="647"/>
      <point x="609" y="625"/>
      <point x="664" y="648" type="curve"/>
      <point x="675" y="647"/>
      <point x="683" y="664"/>
      <point x="684" y="681" type="curve"/>
      <point x="683" y="679"/>
      <point x="677" y="679"/>
      <point x="676" y="685" type="curve"/>
      <point x="658" y="685"/>
      <point x="643" y="693"/>
      <point x="626" y="701" type="curve"/>
      <point x="566" y="705"/>
      <point x="457" y="697"/>
      <point x="395" y="700" type="curve"/>
      <point x="378" y="695"/>
      <point x="362" y="691"/>
      <point x="347" y="695" type="curve"/>
      <point x="335" y="689"/>
      <point x="323" y="691"/>
      <point x="313" y="694" type="curve"/>
      <point x="237" y="678"/>
      <point x="287" y="616"/>
      <point x="317" y="636" type="curve"/>
      <point x="281" y="564"/>
      <point x="245" y="485"/>
      <point x="215" y="421" type="curve"/>
      <point x="203" y="392"/>
      <point x="197" y="365"/>
      <point x="190" y="345" type="curve"/>
      <point x="179" y="312"/>
      <point x="166" y="278"/>
      <point x="153" y="241" type="curve"/>
      <point x="137" y="188"/>
      <point x="125" y="140"/>
      <point x="116" y="96" type="curve"/>
      <point x="111" y="74"/>
      <point x="97" y="55"/>
      <point x="105" y="43" type="curve"/>
      <point x="111" y="20"/>
      <point x="144" y="-7"/>
      <point x="161" y="-11" type="curve"/>
      <point x="170" y="-21"/>
      <point x="237" y="-17"/>
      <point x="252" y="-9" type="curve"/>
      <point x="315" y="-1"/>
      <point x="394" y="35"/>
      <point x="440" y="88" type="curve"/>
      <point x="493" y="140"/>
      <point x="536" y="205"/>
      <point x="529" y="293" type="curve"/>
      <point x="525" y="317"/>
      <point x="508" y="338"/>
      <point x="493" y="366" type="curve"/>
      <point x="488" y="367"/>
      <point x="484" y="374"/>
      <point x="479" y="384" type="curve"/>
      <point x="452" y="403"/>
      <point x="410" y="423"/>
      <point x="376" y="435" type="curve"/>
      <point x="353" y="434"/>
      <point x="319" y="431"/>
      <point x="300" y="444" type="curve"/>
      <point x="305" y="473"/>
      <point x="378" y="601"/>
    </contour>
    <contour>
      <point x="174" y="46" type="curve"/>
      <point x="172" y="64"/>
      <point x="195" y="159"/>
      <point x="206" y="185" type="curve"/>
      <point x="205" y="202"/>
      <point x="256" y="342"/>
      <point x="270" y="369" type="curve"/>
      <point x="277" y="381" type="line"/>
      <point x="294" y="377"/>
      <point x="317" y="374"/>
      <point x="335" y="385" type="curve"/>
      <point x="337" y="381"/>
      <point x="339" y="382"/>
      <point x="343" y="386" type="curve"/>
      <point x="357" y="378"/>
      <point x="373" y="373"/>
      <point x="389" y="374" type="curve"/>
      <point x="432" y="357"/>
      <point x="451" y="342"/>
      <point x="466" y="307" type="curve"/>
      <point x="498" y="209"/>
      <point x="392" y="113"/>
      <point x="319" y="79" type="curve"/>
      <point x="303" y="66"/>
      <point x="291" y="59"/>
      <point x="275" y="60" type="curve"/>
      <point x="259" y="52"/>
      <point x="246" y="41"/>
      <point x="231" y="49" type="curve"/>
      <point x="205" y="38"/>
      <point x="198" y="37"/>
    </contour>
  </outline>
</glyph>
<glyph name="F.ss01" format="2">
  <advance width="466"/>
  <outline>
    <contour>
      <point x="148" y="2" type="line"/>
      <point x="163" y="-16" type="line"/>
      <point x="189" y="-40"/>
      <point x="208" y="-39"/>
      <point x="225" y="3" type="curve"/>
      <point x="240" y="22"/>
      <point x="252" y="38"/>
      <point x="253" y="44" type="curve"/>
      <point x="251" y="59"/>
      <point x="244" y="70"/>
      <point x="238" y="65" type="curve"/>
      <point x="231" y="66"/>
      <point x="226" y="71"/>
      <point x="221" y="76" type="curve"/>
      <point x="216" y="83"/>
      <point x="231" y="147"/>
      <point x="247" y="199" type="curve"/>
      <point x="254" y="217"/>
      <point x="253" y="237"/>
      <point x="253" y="237" type="curve"/>
      <point x="254" y="244"/>
      <point x="254" y="244"/>
      <point x="260" y="250" type="curve"/>
      <point x="260" y="250"/>
      <point x="266" y="257"/>
      <point x="266" y="262" type="curve"/>
      <point x="266" y="267"/>
      <point x="267" y="277"/>
      <point x="272" y="277" type="curve"/>
      <point x="277" y="276"/>
      <point x="292" y="279"/>
      <point x="296" y="279" type="curve"/>
      <point x="302" y="284"/>
      <point x="317" y="281"/>
      <point x="327" y="288" type="curve"/>
      <point x="360" y="285"/>
      <point x="380" y="287"/>
      <point x="396" y="297" type="curve"/>
      <point x="401" y="299"/>
      <point x="416" y="304"/>
      <point x="431" y="301" type="curve"/>
      <point x="446" y="306"/>
      <point x="462" y="312"/>
      <point x="462" y="312" type="curve"/>
      <point x="472" y="320"/>
      <point x="470" y="353"/>
      <point x="456" y="371" type="curve"/>
      <point x="438" y="379"/>
      <point x="438" y="379"/>
      <point x="423" y="372" type="curve"/>
      <point x="413" y="367"/>
      <point x="387" y="365"/>
      <point x="372" y="358" type="curve"/>
      <point x="357" y="356"/>
      <point x="342" y="357"/>
      <point x="344" y="352" type="curve"/>
      <point x="334" y="354"/>
      <point x="329" y="354"/>
      <point x="324" y="354" type="curve"/>
      <point x="319" y="352"/>
      <point x="311" y="346"/>
      <point x="301" y="350" type="curve"/>
      <point x="291" y="342"/>
      <point x="291" y="342"/>
      <point x="289" y="355" type="curve"/>
      <point x="295" y="365"/>
      <point x="302" y="380"/>
      <point x="310" y="401" type="curve"/>
      <point x="313" y="416"/>
      <point x="326" y="447"/>
      <point x="334" y="470" type="curve"/>
      <point x="359" y="535"/>
      <point x="364" y="545"/>
      <point x="362" y="573" type="curve"/>
      <point x="365" y="593"/>
      <point x="363" y="598"/>
      <point x="368" y="597" type="curve"/>
      <point x="373" y="597"/>
      <point x="383" y="603"/>
      <point x="383" y="603" type="curve"/>
      <point x="391" y="609"/>
      <point x="401" y="607"/>
      <point x="414" y="612" type="curve"/>
      <point x="419" y="611"/>
      <point x="438" y="610"/>
      <point x="457" y="615" type="curve"/>
      <point x="472" y="613"/>
      <point x="487" y="617"/>
      <point x="500" y="617" type="curve"/>
      <point x="525" y="621"/>
      <point x="625" y="609"/>
      <point x="646" y="606" type="curve"/>
      <point x="673" y="597" type="line"/>
      <point x="669" y="620" type="line"/>
      <point x="668" y="657"/>
      <point x="651" y="670"/>
      <point x="604" y="673" type="curve"/>
      <point x="582" y="680"/>
      <point x="562" y="681"/>
      <point x="562" y="681" type="curve"/>
      <point x="562" y="676"/>
      <point x="545" y="677"/>
      <point x="524" y="679" type="curve"/>
      <point x="451" y="680"/>
      <point x="418" y="676"/>
      <point x="407" y="671" type="curve"/>
      <point x="403" y="672"/>
      <point x="382" y="669"/>
      <point x="377" y="668" type="curve"/>
      <point x="372" y="668"/>
      <point x="362" y="669"/>
      <point x="362" y="663" type="curve"/>
      <point x="357" y="658"/>
      <point x="317" y="644"/>
      <point x="297" y="643" type="curve"/>
      <point x="268" y="641"/>
      <point x="246" y="632"/>
      <point x="241" y="627" type="curve"/>
      <point x="236" y="622"/>
      <point x="231" y="618"/>
      <point x="225" y="619" type="curve"/>
      <point x="213" y="620"/>
      <point x="210" y="603"/>
      <point x="222" y="591" type="curve"/>
      <point x="227" y="580"/>
      <point x="233" y="580"/>
      <point x="254" y="585" type="curve"/>
      <point x="269" y="583"/>
      <point x="283" y="587"/>
      <point x="283" y="587" type="curve"/>
      <point x="303" y="590"/>
      <point x="308" y="590"/>
      <point x="300" y="575" type="curve"/>
      <point x="300" y="570"/>
      <point x="295" y="554"/>
      <point x="292" y="543" type="curve"/>
      <point x="292" y="533"/>
      <point x="286" y="513"/>
      <point x="281" y="496" type="curve"/>
      <point x="254" y="445"/>
      <point x="233" y="368"/>
      <point x="232" y="353" type="curve"/>
      <point x="233" y="340"/>
      <point x="203" y="318"/>
      <point x="182" y="311" type="curve"/>
      <point x="170" y="309"/>
      <point x="169" y="304"/>
      <point x="168" y="291" type="curve"/>
      <point x="168" y="271"/>
      <point x="168" y="271"/>
      <point x="184" y="268" type="curve"/>
      <point x="199" y="270" type="line"/>
      <point x="197" y="245" type="line" smooth="yes"/>
      <point x="196" y="232"/>
      <point x="197" y="222"/>
      <point x="192" y="220" type="curve"/>
      <point x="187" y="220"/>
      <point x="169" y="139"/>
      <point x="156" y="49" type="curve"/>
    </contour>
  </outline>
</glyph>
<glyph name="H.ss01" format="2">
  <advance width="564"/>
  <outline>
    <contour>
      <point x="138" y="-92" type="curve"/>
      <point x="142" y="-77"/>
      <point x="168" y="39"/>
      <point x="177" y="86" type="curve"/>
      <point x="181" y="118"/>
      <point x="224" y="272"/>
      <point x="229" y="283" type="curve"/>
      <point x="229" y="283"/>
      <point x="240" y="284"/>
      <point x="255" y="284" type="curve"/>
      <point x="266" y="285"/>
      <point x="287" y="285"/>
      <point x="302" y="286" type="curve"/>
      <point x="379" y="299"/>
      <point x="514" y="302"/>
      <point x="520" y="296" type="curve"/>
      <point x="520" y="296"/>
      <point x="520" y="291"/>
      <point x="520" y="286" type="curve"/>
      <point x="515" y="281"/>
      <point x="493" y="168"/>
      <point x="480" y="127" type="curve"/>
      <point x="470" y="85"/>
      <point x="461" y="34"/>
      <point x="455" y="24" type="curve"/>
      <point x="441" y="-7"/>
      <point x="446" y="-20"/>
      <point x="472" y="-34" type="curve"/>
      <point x="487" y="-40"/>
      <point x="499" y="-44"/>
      <point x="503" y="-39" type="curve"/>
      <point x="503" y="-33"/>
      <point x="514" y="24"/>
      <point x="523" y="70" type="curve"/>
      <point x="522" y="76"/>
      <point x="532" y="108"/>
      <point x="537" y="124" type="curve"/>
      <point x="536" y="134"/>
      <point x="546" y="150"/>
      <point x="545" y="160" type="curve"/>
      <point x="565" y="213"/>
      <point x="596" y="346"/>
      <point x="600" y="362" type="curve"/>
      <point x="605" y="367"/>
      <point x="610" y="384"/>
      <point x="609" y="394" type="curve"/>
      <point x="609" y="399"/>
      <point x="626" y="446"/>
      <point x="631" y="451" type="curve"/>
      <point x="636" y="457"/>
      <point x="641" y="467"/>
      <point x="640" y="483" type="curve"/>
      <point x="650" y="509"/>
      <point x="662" y="558"/>
      <point x="681" y="594" type="curve"/>
      <point x="701" y="626"/>
      <point x="701" y="642"/>
      <point x="684" y="656" type="curve"/>
      <point x="679" y="667"/>
      <point x="662" y="672"/>
      <point x="657" y="671" type="curve"/>
      <point x="641" y="671"/>
      <point x="632" y="664"/>
      <point x="613" y="602" type="curve"/>
      <point x="601" y="563"/>
      <point x="583" y="502"/>
      <point x="574" y="464" type="curve"/>
      <point x="543" y="360" type="line"/>
      <point x="492" y="354" type="line"/>
      <point x="460" y="346"/>
      <point x="244" y="344"/>
      <point x="244" y="337" type="curve"/>
      <point x="244" y="342"/>
      <point x="258" y="370"/>
      <point x="271" y="413" type="curve"/>
      <point x="281" y="449"/>
      <point x="302" y="508"/>
      <point x="302" y="508" type="curve"/>
      <point x="302" y="513"/>
      <point x="317" y="550"/>
      <point x="336" y="587" type="curve"/>
      <point x="370" y="660" type="line"/>
      <point x="359" y="676" type="line"/>
      <point x="348" y="697"/>
      <point x="321" y="706"/>
      <point x="312" y="690" type="curve"/>
      <point x="312" y="684"/>
      <point x="302" y="669"/>
      <point x="297" y="658" type="curve"/>
      <point x="264" y="579"/>
      <point x="244" y="526"/>
      <point x="240" y="521" type="curve"/>
      <point x="240" y="521"/>
      <point x="240" y="521"/>
      <point x="240" y="516" type="curve"/>
      <point x="240" y="516"/>
      <point x="220" y="468"/>
      <point x="211" y="437" type="curve"/>
      <point x="201" y="410"/>
      <point x="192" y="379"/>
      <point x="187" y="373" type="curve"/>
      <point x="187" y="368"/>
      <point x="183" y="347"/>
      <point x="178" y="332" type="curve"/>
      <point x="168" y="315"/>
      <point x="168" y="300"/>
      <point x="168" y="300" type="curve"/>
      <point x="169" y="294"/>
      <point x="169" y="289"/>
      <point x="169" y="289" type="curve"/>
      <point x="159" y="279"/>
      <point x="113" y="85"/>
      <point x="105" y="28" type="curve"/>
      <point x="100" y="7"/>
      <point x="100" y="7"/>
      <point x="96" y="-4" type="curve"/>
      <point x="96" y="-15"/>
      <point x="94" y="-37"/>
      <point x="89" y="-42" type="curve"/>
      <point x="85" y="-63"/>
      <point x="96" y="-84"/>
      <point x="117" y="-88" type="curve"/>
      <point x="128" y="-87"/>
      <point x="138" y="-92"/>
    </contour>
  </outline>
</glyph>
<glyph name="T.ss01" format="2">
  <advance width="458"/>
  <outline>
    <contour>
      <point x="279" y="-27" type="curve"/>
      <point x="284" y="-22"/>
      <point x="303" y="38"/>
      <point x="316" y="76" type="curve"/>
      <point x="316" y="81"/>
      <point x="322" y="97"/>
      <point x="322" y="110" type="curve"/>
      <point x="330" y="126"/>
      <point x="330" y="136"/>
      <point x="325" y="137" type="curve"/>
      <point x="330" y="141"/>
      <point x="343" y="206"/>
      <point x="343" y="225" type="curve"/>
      <point x="343" y="236"/>
      <point x="351" y="246"/>
      <point x="351" y="246" type="curve"/>
      <point x="356" y="251"/>
      <point x="361" y="273"/>
      <point x="364" y="302" type="curve"/>
      <point x="369" y="332"/>
      <point x="377" y="356"/>
      <point x="377" y="356" type="curve"/>
      <point x="377" y="366"/>
      <point x="383" y="375"/>
      <point x="388" y="394" type="curve"/>
      <point x="396" y="414"/>
      <point x="396" y="419"/>
      <point x="391" y="425" type="curve"/>
      <point x="396" y="433"/>
      <point x="406" y="460"/>
      <point x="414" y="495" type="curve"/>
      <point x="422" y="525"/>
      <point x="432" y="560"/>
      <point x="437" y="560" type="curve"/>
      <point x="437" y="566"/>
      <point x="458" y="568"/>
      <point x="478" y="568" type="curve"/>
      <point x="525" y="570"/>
      <point x="562" y="573"/>
      <point x="593" y="579" type="curve"/>
      <point x="609" y="579"/>
      <point x="636" y="582"/>
      <point x="646" y="582" type="curve"/>
      <point x="662" y="582"/>
      <point x="677" y="585"/>
      <point x="682" y="591" type="curve"/>
      <point x="687" y="601"/>
      <point x="687" y="601"/>
      <point x="682" y="606" type="curve"/>
      <point x="677" y="611"/>
      <point x="677" y="616"/>
      <point x="677" y="622" type="curve"/>
      <point x="673" y="629"/>
      <point x="663" y="631"/>
      <point x="632" y="631" type="curve"/>
      <point x="612" y="634"/>
      <point x="591" y="634"/>
      <point x="579" y="628" type="curve"/>
      <point x="569" y="628"/>
      <point x="543" y="625"/>
      <point x="513" y="625" type="curve"/>
      <point x="487" y="623"/>
      <point x="461" y="623"/>
      <point x="456" y="618" type="curve"/>
      <point x="446" y="628"/>
      <point x="443" y="643"/>
      <point x="438" y="655" type="curve"/>
      <point x="423" y="676"/>
      <point x="408" y="681"/>
      <point x="398" y="661" type="curve"/>
      <point x="387" y="657"/>
      <point x="387" y="646"/>
      <point x="387" y="640" type="curve"/>
      <point x="384" y="634"/>
      <point x="384" y="629"/>
      <point x="379" y="624" type="curve"/>
      <point x="374" y="624"/>
      <point x="327" y="627"/>
      <point x="271" y="625" type="curve"/>
      <point x="163" y="628"/>
      <point x="148" y="626"/>
      <point x="153" y="603" type="curve"/>
      <point x="155" y="574"/>
      <point x="170" y="567"/>
      <point x="233" y="564" type="curve"/>
      <point x="263" y="564"/>
      <point x="309" y="561"/>
      <point x="329" y="563" type="curve"/>
      <point x="366" y="563" type="line"/>
      <point x="366" y="547" type="line" smooth="yes"/>
      <point x="366" y="540"/>
      <point x="358" y="513"/>
      <point x="353" y="492" type="curve"/>
      <point x="347" y="468"/>
      <point x="339" y="443"/>
      <point x="334" y="422" type="curve"/>
      <point x="331" y="407"/>
      <point x="326" y="368"/>
      <point x="312" y="340" type="curve"/>
      <point x="307" y="300"/>
      <point x="299" y="264"/>
      <point x="299" y="254" type="curve"/>
      <point x="291" y="228"/>
      <point x="248" y="45"/>
      <point x="236" y="21" type="curve"/>
      <point x="223" y="-9"/>
      <point x="228" y="-19"/>
      <point x="254" y="-25" type="curve"/>
      <point x="269" y="-32"/>
      <point x="274" y="-32"/>
    </contour>
  </outline>
</glyph>
<glyph name="X.ss01" format="2">
  <advance width="524"/>
  <outline>
    <contour>
      <point x="561" y="612" type="curve"/>
      <point x="546" y="612"/>
      <point x="484" y="562"/>
      <point x="484" y="552" type="curve"/>
      <point x="484" y="552"/>
      <point x="474" y="542"/>
      <point x="464" y="536" type="curve"/>
      <point x="454" y="529"/>
      <point x="429" y="502"/>
      <point x="409" y="479" type="curve"/>
      <point x="367" y="431" type="line"/>
      <point x="342" y="486" type="line"/>
      <point x="332" y="512"/>
      <point x="312" y="557"/>
      <point x="307" y="573" type="curve"/>
      <point x="297" y="597"/>
      <point x="286" y="617"/>
      <point x="281" y="617" type="curve"/>
      <point x="275" y="634"/>
      <point x="245" y="647"/>
      <point x="230" y="641" type="curve"/>
      <point x="210" y="634"/>
      <point x="210" y="612"/>
      <point x="225" y="585" type="curve"/>
      <point x="245" y="557"/>
      <point x="312" y="391"/>
      <point x="312" y="381" type="curve"/>
      <point x="312" y="366"/>
      <point x="307" y="361"/>
      <point x="302" y="355" type="curve"/>
      <point x="297" y="340"/>
      <point x="286" y="330"/>
      <point x="275" y="315" type="curve"/>
      <point x="265" y="305"/>
      <point x="250" y="285"/>
      <point x="240" y="275" type="curve"/>
      <point x="220" y="240"/>
      <point x="220" y="240"/>
      <point x="195" y="204" type="curve"/>
      <point x="184" y="194"/>
      <point x="174" y="179"/>
      <point x="174" y="179" type="curve"/>
      <point x="164" y="169"/>
      <point x="103" y="68"/>
      <point x="93" y="50" type="curve"/>
      <point x="82" y="23"/>
      <point x="98" y="-5"/>
      <point x="118" y="-11" type="curve"/>
      <point x="128" y="-11"/>
      <point x="133" y="-11"/>
      <point x="143" y="13" type="curve"/>
      <point x="169" y="50"/>
      <point x="174" y="63"/>
      <point x="179" y="78" type="curve"/>
      <point x="184" y="89"/>
      <point x="195" y="107"/>
      <point x="200" y="114" type="curve"/>
      <point x="210" y="124"/>
      <point x="215" y="134"/>
      <point x="210" y="134" type="curve"/>
      <point x="220" y="139"/>
      <point x="255" y="189"/>
      <point x="297" y="250" type="curve"/>
      <point x="307" y="260"/>
      <point x="317" y="280"/>
      <point x="327" y="285" type="curve"/>
      <point x="342" y="305" type="line"/>
      <point x="347" y="285" type="line"/>
      <point x="352" y="280"/>
      <point x="357" y="270"/>
      <point x="357" y="270" type="curve"/>
      <point x="362" y="270"/>
      <point x="362" y="260"/>
      <point x="362" y="255" type="curve"/>
      <point x="362" y="245"/>
      <point x="372" y="230"/>
      <point x="377" y="219" type="curve"/>
      <point x="377" y="219"/>
      <point x="387" y="199"/>
      <point x="393" y="184" type="curve"/>
      <point x="414" y="129"/>
      <point x="419" y="119"/>
      <point x="424" y="107" type="curve"/>
      <point x="424" y="107"/>
      <point x="429" y="89"/>
      <point x="434" y="78" type="curve"/>
      <point x="439" y="68"/>
      <point x="444" y="57"/>
      <point x="444" y="50" type="curve"/>
      <point x="444" y="50"/>
      <point x="449" y="38"/>
      <point x="449" y="28" type="curve"/>
      <point x="454" y="18"/>
      <point x="464" y="1"/>
      <point x="464" y="-11" type="curve"/>
      <point x="469" y="-22"/>
      <point x="474" y="-32"/>
      <point x="469" y="-37" type="curve"/>
      <point x="474" y="-49"/>
      <point x="474" y="-54"/>
      <point x="479" y="-54" type="curve"/>
      <point x="484" y="-49"/>
      <point x="505" y="-61"/>
      <point x="500" y="-67" type="curve"/>
      <point x="500" y="-67"/>
      <point x="505" y="-67"/>
      <point x="515" y="-67" type="curve"/>
      <point x="546" y="-49"/>
      <point x="546" y="-49"/>
      <point x="510" y="33" type="curve"/>
      <point x="495" y="73"/>
      <point x="479" y="114"/>
      <point x="479" y="114" type="curve"/>
      <point x="479" y="119"/>
      <point x="469" y="144"/>
      <point x="454" y="179" type="curve"/>
      <point x="434" y="240"/>
      <point x="429" y="255"/>
      <point x="409" y="300" type="curve"/>
      <point x="403" y="310"/>
      <point x="398" y="335"/>
      <point x="393" y="345" type="curve"/>
      <point x="387" y="361" type="line"/>
      <point x="444" y="423" type="line"/>
      <point x="500" y="486"/>
      <point x="515" y="502"/>
      <point x="566" y="542" type="curve"/>
      <point x="591" y="557"/>
      <point x="597" y="562"/>
      <point x="597" y="573" type="curve"/>
      <point x="591" y="597"/>
      <point x="576" y="612"/>
    </contour>
  </outline>
</glyph>
<glyph name="X.ss02" format="2">
  <advance width="524"/>
  <outline>
    <contour>
      <point x="218" y="638" type="curve"/>
      <point x="202" y="616"/>
      <point x="197" y="603"/>
      <point x="212" y="575" type="curve"/>
      <point x="234" y="546"/>
      <point x="271" y="455"/>
      <point x="289" y="398" type="curve"/>
      <point x="302" y="355" type="line"/>
      <point x="281" y="335" type="line"/>
      <point x="266" y="323"/>
      <point x="243" y="298"/>
      <point x="235" y="284" type="curve"/>
      <point x="223" y="272"/>
      <point x="214" y="255"/>
      <point x="204" y="255" type="curve"/>
      <point x="204" y="255"/>
      <point x="181" y="220"/>
      <point x="149" y="189" type="curve"/>
      <point x="122" y="158"/>
      <point x="88" y="119"/>
      <point x="74" y="113" type="curve"/>
      <point x="67" y="101"/>
      <point x="53" y="79"/>
      <point x="45" y="73" type="curve"/>
      <point x="28" y="55"/>
      <point x="28" y="55"/>
      <point x="49" y="31" type="curve"/>
      <point x="60" y="12"/>
      <point x="70" y="9"/>
      <point x="79" y="17" type="curve"/>
      <point x="93" y="16"/>
      <point x="195" y="135"/>
      <point x="195" y="144" type="curve"/>
      <point x="195" y="144"/>
      <point x="208" y="151"/>
      <point x="216" y="163" type="curve"/>
      <point x="222" y="168"/>
      <point x="231" y="181"/>
      <point x="231" y="188" type="curve"/>
      <point x="245" y="195"/>
      <point x="263" y="214"/>
      <point x="277" y="231" type="curve"/>
      <point x="308" y="272"/>
      <point x="322" y="277"/>
      <point x="330" y="271" type="curve"/>
      <point x="330" y="271"/>
      <point x="347" y="230"/>
      <point x="366" y="191" type="curve"/>
      <point x="392" y="114"/>
      <point x="423" y="71"/>
      <point x="473" y="10" type="curve"/>
      <point x="496" y="-26"/>
      <point x="519" y="-36"/>
      <point x="525" y="-38" type="curve"/>
      <point x="538" y="-38"/>
      <point x="543" y="-47"/>
      <point x="551" y="-46" type="curve"/>
      <point x="551" y="-46"/>
      <point x="566" y="-48"/>
      <point x="574" y="-41" type="curve"/>
      <point x="580" y="-34"/>
      <point x="586" y="-29"/>
      <point x="589" y="6" type="curve"/>
      <point x="591" y="25"/>
      <point x="586" y="47"/>
      <point x="586" y="47" type="curve"/>
      <point x="576" y="64"/>
      <point x="551" y="35"/>
      <point x="546" y="29" type="curve"/>
      <point x="524" y="5"/>
      <point x="450" y="139"/>
      <point x="389" y="287" type="curve"/>
      <point x="369" y="332" type="line"/>
      <point x="392" y="353" type="line" smooth="yes"/>
      <point x="442" y="404"/>
      <point x="571" y="516"/>
      <point x="583" y="521" type="curve"/>
      <point x="599" y="525"/>
      <point x="620" y="540"/>
      <point x="635" y="552" type="curve"/>
      <point x="650" y="556"/>
      <point x="658" y="569"/>
      <point x="658" y="569" type="curve"/>
      <point x="659" y="585"/>
      <point x="637" y="616"/>
      <point x="622" y="616" type="curve"/>
      <point x="625" y="616"/>
      <point x="600" y="604"/>
      <point x="573" y="588" type="curve"/>
      <point x="548" y="568"/>
      <point x="488" y="526"/>
      <point x="437" y="481" type="curve"/>
      <point x="358" y="398" type="line"/>
      <point x="341" y="439" type="line" smooth="yes"/>
      <point x="335" y="451"/>
      <point x="322" y="480"/>
      <point x="317" y="503" type="curve"/>
      <point x="292" y="586"/>
      <point x="255" y="654"/>
    </contour>
  </outline>
</glyph>
<glyph name="brevecomb.case" format="2">
  <advance width="496"/>
  <anchor x="533" y="785" name="_topUC"/>
  <anchor x="553" y="941" name="topUC"/>
  <outline>
    <contour>
      <point x="510" y="701" type="curve" smooth="yes"/>
      <point x="583" y="695"/>
      <point x="636" y="777"/>
      <point x="643" y="802" type="curve" smooth="yes"/>
      <point x="648" y="821"/>
      <point x="627" y="863"/>
      <point x="598" y="812" type="curve" smooth="yes"/>
      <point x="586" y="791"/>
      <point x="551" y="746"/>
      <point x="525" y="745" type="curve" smooth="yes"/>
      <point x="465" y="743"/>
      <point x="462" y="791"/>
      <point x="468" y="814" type="curve" smooth="yes"/>
      <point x="480" y="859"/>
      <point x="431" y="857"/>
      <point x="422" y="808" type="curve" smooth="yes"/>
      <point x="411" y="748"/>
      <point x="445" y="706"/>
    </contour>
  </outline>
</glyph>
<glyph name="che-cy.ss02" format="2">
  <advance width="323"/>
  <outline>
    <contour>
      <point x="276" y="24" type="curve"/>
      <point x="283" y="29"/>
      <point x="291" y="32"/>
      <point x="298" y="36" type="curve"/>
      <point x="297" y="45"/>
      <point x="292" y="67"/>
      <point x="295" y="75" type="curve"/>
      <point x="296" y="87"/>
      <point x="291" y="89"/>
      <point x="296" y="102" type="curve"/>
      <point x="300" y="113"/>
      <point x="303" y="123"/>
      <point x="306" y="134" type="curve"/>
      <point x="316" y="163"/>
      <point x="341" y="214"/>
      <point x="359" y="239" type="curve"/>
      <point x="383" y="272"/>
      <point x="409" y="299"/>
      <point x="409" y="342" type="curve"/>
      <point x="402" y="351"/>
      <point x="399" y="356"/>
      <point x="396" y="359" type="curve" smooth="yes"/>
      <point x="391" y="364"/>
      <point x="389" y="364"/>
      <point x="370" y="369" type="curve"/>
      <point x="344" y="353"/>
      <point x="303" y="299"/>
      <point x="279" y="278" type="curve"/>
      <point x="251" y="253"/>
      <point x="204" y="205"/>
      <point x="174" y="214" type="curve"/>
      <point x="183" y="253"/>
      <point x="180" y="233"/>
      <point x="193" y="267" type="curve"/>
      <point x="203" y="294"/>
      <point x="220" y="314"/>
      <point x="230" y="342" type="curve"/>
      <point x="224" y="357"/>
      <point x="218" y="372"/>
      <point x="204" y="381" type="curve"/>
      <point x="195" y="380"/>
      <point x="185" y="379"/>
      <point x="176" y="378" type="curve"/>
      <point x="153" y="342"/>
      <point x="135" y="304"/>
      <point x="119" y="264" type="curve"/>
      <point x="96" y="206"/>
      <point x="115" y="171"/>
      <point x="168" y="144" type="curve"/>
      <point x="208" y="157"/>
      <point x="237" y="179"/>
      <point x="270" y="217" type="curve"/>
      <point x="275" y="217" type="line"/>
      <point x="231" y="141"/>
      <point x="200" y="48"/>
      <point x="259" y="28" type="curve"/>
      <point x="265" y="26"/>
      <point x="270" y="26"/>
    </contour>
  </outline>
</glyph>
<glyph name="circumflexcomb.case" format="2">
  <anchor x="532" y="785" name="_topUC"/>
  <anchor x="553" y="941" name="topUC"/>
  <outline>
    <contour>
      <point x="466" y="730" type="curve"/>
      <point x="479" y="741"/>
      <point x="513" y="772"/>
      <point x="538" y="786" type="curve"/>
      <point x="558" y="769"/>
      <point x="582" y="745"/>
      <point x="592" y="733" type="curve" smooth="yes"/>
      <point x="628" y="689"/>
      <point x="650" y="733"/>
      <point x="634" y="755" type="curve"/>
      <point x="629" y="761"/>
      <point x="579" y="813"/>
      <point x="555" y="833" type="curve"/>
      <point x="547" y="845"/>
      <point x="536" y="845"/>
      <point x="524" y="835" type="curve"/>
      <point x="496" y="820"/>
      <point x="438" y="767"/>
      <point x="430" y="757" type="curve" smooth="yes"/>
      <point x="408" y="729"/>
      <point x="432" y="696"/>
    </contour>
  </outline>
</glyph>
<glyph name="dblgravecomb.case" format="2">
  <advance width="496"/>
  <anchor x="533" y="785" name="_topUC"/>
  <anchor x="553" y="941" name="topUC"/>
  <outline>
    <contour>
      <point x="430" y="719" type="curve"/>
      <point x="442" y="726"/>
      <point x="451" y="748"/>
      <point x="450" y="752" type="curve"/>
      <point x="450" y="760"/>
      <point x="400" y="848"/>
      <point x="384" y="858" type="curve"/>
      <point x="374" y="865"/>
      <point x="358" y="857"/>
      <point x="345" y="838" type="curve"/>
      <point x="333" y="824"/>
      <point x="391" y="765"/>
      <point x="405" y="737" type="curve"/>
      <point x="413" y="715"/>
      <point x="416" y="712"/>
    </contour>
    <contour>
      <point x="549" y="719" type="curve"/>
      <point x="560" y="726"/>
      <point x="569" y="748"/>
      <point x="568" y="752" type="curve"/>
      <point x="568" y="760"/>
      <point x="519" y="847"/>
      <point x="502" y="858" type="curve"/>
      <point x="492" y="865"/>
      <point x="479" y="856"/>
      <point x="463" y="838" type="curve"/>
      <point x="451" y="824"/>
      <point x="509" y="765"/>
      <point x="523" y="737" type="curve"/>
      <point x="531" y="715"/>
      <point x="534" y="712"/>
    </contour>
  </outline>
</glyph>
<glyph name="dotaccentcomb.case" format="2">
  <advance width="496"/>
  <anchor x="535" y="785" name="_topUC"/>
  <outline>
    <contour>
      <point x="498" y="738" type="curve" smooth="yes"/>
      <point x="516" y="723"/>
      <point x="532" y="724"/>
      <point x="552" y="751" type="curve"/>
      <point x="576" y="780"/>
      <point x="581" y="791"/>
      <point x="569" y="817" type="curve"/>
      <point x="556" y="838"/>
      <point x="540" y="847"/>
      <point x="524" y="836" type="curve"/>
      <point x="519" y="835"/>
      <point x="514" y="827"/>
      <point x="510" y="824" type="curve"/>
      <point x="493" y="809"/>
      <point x="485" y="784"/>
      <point x="483" y="777" type="curve" smooth="yes"/>
      <point x="481" y="771"/>
      <point x="488" y="747"/>
    </contour>
  </outline>
</glyph>
<glyph name="eight.numerator" format="2">
  <advance width="320"/>
  <outline>
    <contour>
      <point x="234" y="195" type="curve"/>
      <point x="245" y="191"/>
      <point x="277" y="197"/>
      <point x="294" y="210" type="curve"/>
      <point x="300" y="214"/>
      <point x="305" y="218"/>
      <point x="306" y="217" type="curve"/>
      <point x="313" y="214"/>
      <point x="323" y="220"/>
      <point x="327" y="229" type="curve"/>
      <point x="332" y="232"/>
      <point x="332" y="234"/>
      <point x="332" y="234" type="curve"/>
      <point x="346" y="232"/>
      <point x="367" y="270"/>
      <point x="383" y="317" type="curve"/>
      <point x="386" y="325"/>
      <point x="388" y="336"/>
      <point x="388" y="346" type="curve"/>
      <point x="388" y="367"/>
      <point x="380" y="398"/>
      <point x="365" y="430" type="curve"/>
      <point x="356" y="444"/>
      <point x="350" y="453"/>
      <point x="351" y="453" type="curve"/>
      <point x="357" y="457" type="line"/>
      <point x="367" y="456"/>
      <point x="397" y="471"/>
      <point x="403" y="478" type="curve"/>
      <point x="413" y="476"/>
      <point x="418" y="482"/>
      <point x="422" y="488" type="curve"/>
      <point x="422" y="489"/>
      <point x="423" y="492"/>
      <point x="424" y="493" type="curve"/>
      <point x="430" y="495"/>
      <point x="436" y="500"/>
      <point x="439" y="504" type="curve"/>
      <point x="438" y="504" type="line"/>
      <point x="441" y="508" type="line"/>
      <point x="448" y="511"/>
      <point x="458" y="522"/>
      <point x="466" y="535" type="curve"/>
      <point x="471" y="545"/>
      <point x="475" y="561"/>
      <point x="475" y="574" type="curve"/>
      <point x="475" y="584"/>
      <point x="474" y="595"/>
      <point x="470" y="603" type="curve"/>
      <point x="467" y="610" type="line"/>
      <point x="465" y="614" type="line"/>
      <point x="463" y="624"/>
      <point x="433" y="654"/>
      <point x="415" y="662" type="curve"/>
      <point x="391" y="674"/>
      <point x="334" y="685"/>
      <point x="318" y="688" type="curve"/>
      <point x="316" y="688" type="line"/>
      <point x="288" y="683"/>
      <point x="268" y="660"/>
      <point x="252" y="622" type="curve"/>
      <point x="246" y="607"/>
      <point x="242" y="587"/>
      <point x="242" y="574" type="curve"/>
      <point x="242" y="561"/>
      <point x="245" y="547"/>
      <point x="253" y="537" type="curve"/>
      <point x="258" y="526" type="line"/>
      <point x="265" y="510" type="line"/>
      <point x="283" y="478"/>
      <point x="283" y="474"/>
      <point x="273" y="460" type="curve"/>
      <point x="257" y="437"/>
      <point x="221" y="357"/>
      <point x="208" y="313" type="curve"/>
      <point x="204" y="303"/>
      <point x="201" y="279"/>
      <point x="200" y="267" type="curve"/>
      <point x="198" y="249"/>
      <point x="199" y="238"/>
      <point x="204" y="226" type="curve"/>
      <point x="206" y="227" type="line"/>
      <point x="206" y="222" type="line"/>
      <point x="207" y="219" type="line"/>
      <point x="215" y="209"/>
      <point x="225" y="198"/>
    </contour>
    <contour>
      <point x="248" y="244" type="curve"/>
      <point x="243" y="252"/>
      <point x="249" y="289"/>
      <point x="266" y="326" type="curve"/>
      <point x="272" y="340"/>
      <point x="278" y="356"/>
      <point x="279" y="363" type="curve"/>
      <point x="281" y="367"/>
      <point x="286" y="376"/>
      <point x="292" y="384" type="curve"/>
      <point x="292" y="384"/>
      <point x="303" y="405"/>
      <point x="310" y="420" type="curve"/>
      <point x="310" y="421"/>
      <point x="310" y="422"/>
      <point x="311" y="423" type="curve"/>
      <point x="315" y="428" type="line"/>
      <point x="323" y="418" type="line"/>
      <point x="326" y="407"/>
      <point x="333" y="387"/>
      <point x="338" y="378" type="curve"/>
      <point x="345" y="345"/>
      <point x="336" y="313"/>
      <point x="307" y="281" type="curve"/>
      <point x="290" y="265"/>
      <point x="260" y="246"/>
    </contour>
    <contour>
      <point x="323" y="419" type="line"/>
      <point x="324" y="417" type="line"/>
      <point x="323" y="418" type="line"/>
    </contour>
    <contour>
      <point x="259" y="524" type="curve"/>
      <point x="260" y="526" type="line"/>
      <point x="260" y="526"/>
      <point x="261" y="526"/>
      <point x="260" y="528" type="curve"/>
      <point x="256" y="528" type="line"/>
      <point x="256" y="527"/>
      <point x="257" y="525"/>
    </contour>
    <contour>
      <point x="313" y="516" type="curve"/>
      <point x="309" y="516"/>
      <point x="307" y="519"/>
      <point x="307" y="522" type="curve"/>
      <point x="307" y="522"/>
      <point x="303" y="530"/>
      <point x="297" y="536" type="curve"/>
      <point x="291" y="551"/>
      <point x="288" y="571"/>
      <point x="294" y="586" type="curve"/>
      <point x="302" y="621"/>
      <point x="322" y="638"/>
      <point x="350" y="638" type="curve"/>
      <point x="362" y="638"/>
      <point x="379" y="634"/>
      <point x="398" y="626" type="curve"/>
      <point x="424" y="613"/>
      <point x="427" y="608"/>
      <point x="427" y="593" type="curve"/>
      <point x="429" y="577"/>
      <point x="428" y="574"/>
      <point x="422" y="562" type="curve"/>
      <point x="422" y="563" type="line"/>
      <point x="413" y="550"/>
      <point x="399" y="537"/>
      <point x="394" y="533" type="curve"/>
      <point x="387" y="540" type="line"/>
      <point x="387" y="540"/>
      <point x="386" y="542"/>
      <point x="385" y="545" type="curve"/>
      <point x="367" y="546"/>
      <point x="359" y="547"/>
      <point x="335" y="529" type="curve"/>
      <point x="318" y="514"/>
      <point x="314" y="513"/>
    </contour>
  </outline>
</glyph>
<glyph name="ge-cy.ss01" format="2">
  <advance width="280"/>
  <outline>
    <contour>
      <point x="143" y="6" type="curve"/>
      <point x="155" y="23"/>
      <point x="168" y="124"/>
      <point x="179" y="154" type="curve"/>
      <point x="183" y="164"/>
      <point x="182" y="176"/>
      <point x="189" y="186" type="curve"/>
      <point x="199" y="203"/>
      <point x="211" y="264"/>
      <point x="218" y="286" type="curve"/>
      <point x="224" y="301"/>
      <point x="224" y="316"/>
      <point x="226" y="331" type="curve"/>
      <point x="256" y="336"/>
      <point x="314" y="338"/>
      <point x="345" y="339" type="curve"/>
      <point x="358" y="340"/>
      <point x="367" y="339"/>
      <point x="380" y="339" type="curve"/>
      <point x="394" y="340"/>
      <point x="402" y="347"/>
      <point x="404" y="362" type="curve"/>
      <point x="391" y="381"/>
      <point x="390" y="383"/>
      <point x="372" y="394" type="curve"/>
      <point x="355" y="396"/>
      <point x="302" y="393"/>
      <point x="290" y="397" type="curve"/>
      <point x="284" y="390"/>
      <point x="255" y="398"/>
      <point x="250" y="392" type="curve"/>
      <point x="224" y="398"/>
      <point x="188" y="378"/>
      <point x="168" y="363" type="curve"/>
      <point x="167" y="356"/>
      <point x="164" y="350"/>
      <point x="161" y="343" type="curve"/>
      <point x="160" y="342"/>
      <point x="145" y="266"/>
      <point x="137" y="224" type="curve"/>
      <point x="129" y="176"/>
      <point x="118" y="130"/>
      <point x="96" y="84" type="curve"/>
      <point x="94" y="81"/>
      <point x="82" y="34"/>
      <point x="83" y="32" type="curve"/>
      <point x="85" y="24"/>
      <point x="95" y="19"/>
      <point x="102" y="14" type="curve"/>
      <point x="114" y="3"/>
      <point x="127" y="1"/>
    </contour>
  </outline>
</glyph>
<glyph name="gravecomb.case" format="2">
  <anchor x="533" y="785" name="_topUC"/>
  <anchor x="553" y="951" name="topUC"/>
  <outline>
    <contour>
      <point x="547" y="711" type="curve"/>
      <point x="558" y="714"/>
      <point x="568" y="731"/>
      <point x="567" y="737" type="curve"/>
      <point x="567" y="752"/>
      <point x="529" y="847"/>
      <point x="510" y="857" type="curve"/>
      <point x="497" y="871"/>
      <point x="485" y="860"/>
      <point x="468" y="845" type="curve"/>
      <point x="451" y="822"/>
      <point x="503" y="760"/>
      <point x="520" y="727" type="curve"/>
      <point x="528" y="704"/>
      <point x="531" y="699"/>
    </contour>
  </outline>
</glyph>
<glyph name="hungarumlautcomb.case" format="2">
  <advance width="496"/>
  <anchor x="533" y="785" name="_topUC"/>
  <anchor x="553" y="941" name="topUC"/>
  <outline>
    <contour>
      <point x="418" y="718" type="curve"/>
      <point x="431" y="709"/>
      <point x="435" y="711"/>
      <point x="448" y="731" type="curve"/>
      <point x="466" y="755"/>
      <point x="536" y="801"/>
      <point x="527" y="817" type="curve" smooth="yes"/>
      <point x="515" y="838"/>
      <point x="505" y="850"/>
      <point x="493" y="845" type="curve" smooth="yes"/>
      <point x="474" y="838"/>
      <point x="408" y="762"/>
      <point x="406" y="755" type="curve" smooth="yes"/>
      <point x="405" y="751"/>
      <point x="409" y="727"/>
    </contour>
    <contour>
      <point x="557" y="718" type="curve"/>
      <point x="569" y="709"/>
      <point x="573" y="711"/>
      <point x="586" y="731" type="curve"/>
      <point x="604" y="755"/>
      <point x="674" y="801"/>
      <point x="665" y="817" type="curve"/>
      <point x="656" y="838"/>
      <point x="643" y="850"/>
      <point x="631" y="845" type="curve" smooth="yes"/>
      <point x="613" y="838"/>
      <point x="546" y="762"/>
      <point x="544" y="755" type="curve" smooth="yes"/>
      <point x="543" y="751"/>
      <point x="547" y="727"/>
    </contour>
  </outline>
</glyph>
<glyph name="i.ss02" format="2">
  <advance width="187"/>
  <outline>
    <contour>
      <point x="119" y="49" type="curve"/>
      <point x="133" y="49"/>
      <point x="133" y="54"/>
      <point x="153" y="93" type="curve"/>
      <point x="192" y="172"/>
      <point x="226" y="260"/>
      <point x="226" y="275" type="curve"/>
      <point x="226" y="304"/>
      <point x="202" y="333"/>
      <point x="187" y="319" type="curve"/>
      <point x="182" y="314"/>
      <point x="177" y="304"/>
      <point x="177" y="299" type="curve"/>
      <point x="173" y="284"/>
      <point x="114" y="133"/>
      <point x="94" y="98" type="curve"/>
      <point x="89" y="83"/>
      <point x="89" y="79"/>
      <point x="99" y="74" type="curve"/>
      <point x="99" y="69"/>
      <point x="104" y="59"/>
      <point x="104" y="54" type="curve"/>
      <point x="104" y="54"/>
      <point x="114" y="49"/>
    </contour>
    <contour>
      <point x="266" y="428" type="curve"/>
      <point x="300" y="428"/>
      <point x="300" y="432"/>
      <point x="300" y="461" type="curve"/>
      <point x="300" y="476"/>
      <point x="271" y="496"/>
      <point x="256" y="529" type="curve"/>
      <point x="246" y="534"/>
      <point x="242" y="534"/>
      <point x="232" y="534" type="curve"/>
      <point x="232" y="529"/>
      <point x="208" y="500"/>
      <point x="208" y="491" type="curve"/>
      <point x="208" y="461"/>
      <point x="242" y="428"/>
    </contour>
  </outline>
</glyph>
<glyph name="ia-cy.ss01" format="2">
  <advance width="311"/>
  <outline>
    <contour>
      <point x="312" y="346" type="curve"/>
      <point x="296" y="346"/>
      <point x="261" y="350"/>
      <point x="246" y="343" type="curve"/>
      <point x="222" y="331"/>
      <point x="194" y="300"/>
      <point x="193" y="271" type="curve" smooth="yes"/>
      <point x="193" y="259"/>
      <point x="198" y="247"/>
      <point x="212" y="237" type="curve"/>
      <point x="232" y="223"/>
      <point x="261" y="211"/>
      <point x="279" y="196" type="curve"/>
      <point x="291" y="223"/>
      <point x="292" y="248"/>
      <point x="303" y="272" type="curve"/>
      <point x="307" y="281"/>
      <point x="314" y="335"/>
    </contour>
    <contour>
      <point x="278" y="0" type="curve"/>
      <point x="267" y="7"/>
      <point x="257" y="14"/>
      <point x="246" y="21" type="curve"/>
      <point x="243" y="65"/>
      <point x="258" y="108"/>
      <point x="268" y="150" type="curve"/>
      <point x="267" y="154"/>
      <point x="259" y="152"/>
      <point x="250" y="147" type="curve" smooth="yes"/>
      <point x="233" y="138"/>
      <point x="208" y="120"/>
      <point x="203" y="116" type="curve"/>
      <point x="190" y="107"/>
      <point x="92" y="43"/>
      <point x="86" y="43" type="curve"/>
      <point x="62" y="44"/>
      <point x="54" y="66"/>
      <point x="50" y="87" type="curve"/>
      <point x="59" y="100"/>
      <point x="70" y="108"/>
      <point x="85" y="112" type="curve"/>
      <point x="110" y="119"/>
      <point x="177" y="163"/>
      <point x="210" y="186" type="curve"/>
      <point x="200" y="190"/>
      <point x="189" y="195"/>
      <point x="179" y="199" type="curve"/>
      <point x="160" y="212"/>
      <point x="149" y="222"/>
      <point x="139" y="254" type="curve"/>
      <point x="135" y="269"/>
      <point x="134" y="281"/>
      <point x="139" y="296" type="curve"/>
      <point x="151" y="330"/>
      <point x="152" y="343"/>
      <point x="164" y="355" type="curve" smooth="yes"/>
      <point x="172" y="363"/>
      <point x="183" y="370"/>
      <point x="204" y="382" type="curve"/>
      <point x="207" y="384"/>
      <point x="209" y="386"/>
      <point x="212" y="386" type="curve"/>
      <point x="235" y="388"/>
      <point x="263" y="395"/>
      <point x="286" y="393" type="curve"/>
      <point x="303" y="392"/>
      <point x="319" y="392"/>
      <point x="336" y="392" type="curve"/>
      <point x="358" y="381"/>
      <point x="371" y="369"/>
      <point x="371" y="342" type="curve"/>
      <point x="371" y="290"/>
      <point x="326" y="113"/>
      <point x="308" y="66" type="curve"/>
      <point x="310" y="54"/>
      <point x="303" y="41"/>
      <point x="302" y="29" type="curve"/>
      <point x="300" y="9"/>
      <point x="293" y="7"/>
    </contour>
  </outline>
</glyph>
<glyph name="macroncomb.case" format="2">
  <anchor x="533" y="785" name="_topUC"/>
  <anchor x="553" y="921" name="topUC"/>
  <outline>
    <contour>
      <point x="445" y="762" type="curve" smooth="yes"/>
      <point x="480" y="762"/>
      <point x="535" y="766"/>
      <point x="547" y="766" type="curve" smooth="yes"/>
      <point x="571" y="766"/>
      <point x="617" y="768"/>
      <point x="627" y="769" type="curve"/>
      <point x="656" y="766"/>
      <point x="660" y="787"/>
      <point x="643" y="807" type="curve"/>
      <point x="628" y="818"/>
      <point x="602" y="819"/>
      <point x="571" y="819" type="curve" smooth="yes"/>
      <point x="520" y="819"/>
      <point x="470" y="815"/>
      <point x="425" y="808" type="curve" smooth="yes"/>
      <point x="379" y="803"/>
      <point x="372" y="798"/>
      <point x="384" y="778" type="curve" smooth="yes"/>
      <point x="389" y="769"/>
      <point x="393" y="766"/>
      <point x="413" y="766" type="curve"/>
      <point x="425" y="762"/>
      <point x="437" y="762"/>
    </contour>
  </outline>
</glyph>
<glyph name="ringcomb.case" format="2">
  <anchor x="533" y="785" name="_topUC"/>
  <anchor x="553" y="941" name="topUC"/>
  <outline>
    <contour>
      <point x="523" y="690" type="curve" smooth="yes"/>
      <point x="572" y="690"/>
      <point x="601" y="748"/>
      <point x="601" y="797" type="curve" smooth="yes"/>
      <point x="601" y="836"/>
      <point x="568" y="855"/>
      <point x="525" y="855" type="curve" smooth="yes"/>
      <point x="482" y="855"/>
      <point x="456" y="797"/>
      <point x="456" y="760" type="curve"/>
      <point x="460" y="721"/>
      <point x="478" y="690"/>
    </contour>
    <contour>
      <point x="519" y="730" type="curve" smooth="yes"/>
      <point x="508" y="730"/>
      <point x="494" y="750"/>
      <point x="494" y="764" type="curve" smooth="yes"/>
      <point x="494" y="798"/>
      <point x="506" y="814"/>
      <point x="532" y="814" type="curve" smooth="yes"/>
      <point x="554" y="814"/>
      <point x="557" y="794"/>
      <point x="558" y="777" type="curve" smooth="yes"/>
      <point x="559" y="745"/>
      <point x="543" y="730"/>
    </contour>
  </outline>
</glyph>
<glyph name="v.ss01" format="2">
  <advance width="331"/>
  <outline>
    <contour>
      <point x="202" y="32" type="curve"/>
      <point x="212" y="37"/>
      <point x="232" y="52"/>
      <point x="246" y="71" type="curve"/>
      <point x="281" y="115"/>
      <point x="344" y="199"/>
      <point x="349" y="218" type="curve"/>
      <point x="354" y="223"/>
      <point x="359" y="228"/>
      <point x="359" y="228" type="curve"/>
      <point x="369" y="233"/>
      <point x="398" y="287"/>
      <point x="398" y="297" type="curve"/>
      <point x="398" y="302"/>
      <point x="393" y="307"/>
      <point x="388" y="311" type="curve"/>
      <point x="379" y="316"/>
      <point x="374" y="316"/>
      <point x="369" y="311" type="curve"/>
      <point x="364" y="311"/>
      <point x="359" y="307"/>
      <point x="354" y="311" type="curve"/>
      <point x="349" y="311"/>
      <point x="330" y="292"/>
      <point x="315" y="267" type="curve"/>
      <point x="310" y="257"/>
      <point x="300" y="248"/>
      <point x="295" y="238" type="curve"/>
      <point x="290" y="233"/>
      <point x="276" y="213"/>
      <point x="261" y="194" type="curve"/>
      <point x="251" y="179"/>
      <point x="232" y="150"/>
      <point x="222" y="135" type="curve"/>
      <point x="202" y="115"/>
      <point x="197" y="111"/>
      <point x="192" y="120" type="curve"/>
      <point x="188" y="125"/>
      <point x="188" y="169"/>
      <point x="192" y="223" type="curve"/>
      <point x="192" y="326"/>
      <point x="192" y="341"/>
      <point x="173" y="351" type="curve"/>
      <point x="163" y="356"/>
      <point x="148" y="356"/>
      <point x="144" y="351" type="curve"/>
      <point x="144" y="346"/>
      <point x="144" y="302"/>
      <point x="139" y="248" type="curve"/>
      <point x="139" y="125"/>
      <point x="148" y="61"/>
      <point x="173" y="37" type="curve"/>
      <point x="188" y="22"/>
      <point x="188" y="22"/>
    </contour>
  </outline>
</glyph>
